<svg xmlns="http://www.w3.org/2000/svg" width="198" height="81" viewBox="0 0 198 81">
    <g fill="none" fill-rule="nonzero">
        <path fill="#471E48" d="M113.881 69.247l-1.594-1.463-2.904 2.733 1.585 1.717c1.208 1.127 1.208 2.952 0 4.08-1.228 1.11-3.185 1.102-4.401-.02l-1.633-1.501L102 77.526l1.652 1.5c1.828 1.703 4.492 2.367 6.987 1.744 2.496-.623 4.446-2.438 5.114-4.763.67-2.324-.044-4.805-1.872-6.507v-.253zM99.687 61.1l10.817 10.573 2.867-2.867-12.28-12.017a2.033 2.033 0 0 0-2.868 0l-7.178 7.198a1.991 1.991 0 0 0 .02 2.888l12.262 11.976 2.867-2.868L95.376 65.41l4.311-4.31z"/>
        <path fill="#471E48" d="M95.6 63.01c-.54 0-1.056-.213-1.438-.595l-8.133-8.133a2.033 2.033 0 0 1 2.875-2.875l8.134 8.133a2.033 2.033 0 0 1-1.438 3.47z"/>
        <path fill="#DCAD28" d="M28.5 46.744H4.1a4.067 4.067 0 0 1-4.066-4.066V22.344A4.067 4.067 0 0 1 4.1 18.277h109.8a4.067 4.067 0 0 1 4.066 4.067v20.334a4.067 4.067 0 0 1-4.066 4.066H28.5z"/>
        <path fill="#471E48" d="M95.288 32.51c0 15.55-12.606 28.155-28.155 28.155-15.549 0-28.153-12.605-28.153-28.154 0-15.55 12.604-28.154 28.153-28.154 15.55 0 28.155 12.605 28.155 28.154z"/>
        <path fill="#FFF" d="M91.534 32.51c0 13.477-10.925 24.401-24.4 24.401-13.477 0-24.4-10.924-24.4-24.4 0-13.476 10.923-24.4 24.4-24.4 13.475 0 24.4 10.924 24.4 24.4z"/>
        <path fill="#471E48" d="M10.2 40.644a2.033 2.033 0 0 1-2.033-2.033v-12.2a2.033 2.033 0 1 1 4.067 0v12.2c0 1.123-.91 2.033-2.034 2.033z" opacity=".263"/>
        <path fill="#471E48" d="M73.234 44.71h-.107a2.032 2.032 0 0 1-1.799-1.316l-4.195-11.192-4.195 11.183a2.033 2.033 0 0 1-1.8 1.318c-.809.05-1.568-.393-1.925-1.122L51.08 27.313a2.034 2.034 0 0 1 3.64-1.817l6.047 12.098 4.46-11.898a2.034 2.034 0 0 1 3.812 0l4.46 11.898 6.038-12.092a2.034 2.034 0 1 1 3.64 1.818l-8.134 16.266a2.032 2.032 0 0 1-1.81 1.125z"/>
        <g>
            <path d="M166 1.067c-17.084 0-30.933 13.849-30.933 30.933S148.916 62.933 166 62.933 196.933 49.084 196.933 32A30.933 30.933 0 0 0 166 1.067zm8.533 27.733c.001 2.59-1.176 5.04-3.2 6.656v4.01a5.333 5.333 0 0 1-10.666 0v-4.01a8.516 8.516 0 0 1-3.2-6.656V18.133l1.368.684a6.475 6.475 0 0 0 5.796 0c.9-.45 1.893-.683 2.899-.684h.522a6.481 6.481 0 0 1 6.481 6.481V28.8z"/>
            <path fill="#F1F7FB" d="M166 5.333c-14.728 0-26.667 11.94-26.667 26.667 0 14.728 11.94 26.667 26.667 26.667 14.728 0 26.667-11.94 26.667-26.667A26.667 26.667 0 0 0 166 5.333zm8.533 23.467c.001 2.59-1.176 5.04-3.2 6.656v4.01a5.333 5.333 0 0 1-10.666 0v-4.01a8.516 8.516 0 0 1-3.2-6.656V18.133l1.368.684a6.475 6.475 0 0 0 5.796 0c.9-.45 1.893-.683 2.899-.684h.522a6.481 6.481 0 0 1 6.481 6.481V28.8z"/>
            <path fill="#FAA338" d="M166 37.333a8.494 8.494 0 0 1-5.333-1.877v4.01a5.316 5.316 0 0 0 10 2.534 5.27 5.27 0 0 1-7.486-2.716 8.5 8.5 0 0 0 8.152-2.725v-1.103A8.494 8.494 0 0 1 166 37.333z" opacity=".365"/>
            <path fill="#FAA338" d="M161.733 28.8v-6.197c1.35.23 2.739.024 3.965-.586.9-.45 1.892-.683 2.898-.684h.523a6.476 6.476 0 0 1 5.395 2.891 6.477 6.477 0 0 0-6.462-6.09h-.522a6.493 6.493 0 0 0-2.899.683 6.475 6.475 0 0 1-5.796 0l-1.368-.684V28.8a8.505 8.505 0 0 0 10.666 8.254 8.533 8.533 0 0 1-6.4-8.254z" opacity=".377"/>
            <path fill="#FFC82C" d="M177.733 39.467h-6.4a5.333 5.333 0 1 1-10.666 0h-6.4A8.533 8.533 0 0 0 145.733 48v7.36c11.624 10.1 28.91 10.1 40.534 0V48a8.533 8.533 0 0 0-8.534-8.533z"/>
            <path fill="#FDDCB4" d="M172.947 49h-3.79c0 1.757-1.413 3.182-3.157 3.182s-3.158-1.425-3.158-3.182h-3.79c-2.79 0-5.052 2.28-5.052 5.09v4.39a18.192 18.192 0 0 0 24 0v-4.39c0-2.81-2.262-5.09-5.053-5.09z"/>
            <path fill="#FFC82C" d="M170.267 11.733H153.2v9.6a8.524 8.524 0 0 0 4.267 7.383V18.133l1.368.684a6.475 6.475 0 0 0 5.796 0c.9-.45 1.893-.683 2.899-.684h.522a6.481 6.481 0 0 1 6.481 6.481v4.102a8.524 8.524 0 0 0 4.267-7.383v-1.066a8.533 8.533 0 0 0-8.533-8.534z"/>
            <g fill="#471E48">
                <g transform="translate(134)">
                    <circle cx="27.733" cy="25.6" r="1.067"/>
                    <circle cx="36.267" cy="25.6" r="1.067"/>
                    <path d="M32 0C14.327 0 0 14.327 0 32c0 17.673 14.327 32 32 32 17.673 0 32-14.327 32-32C63.98 14.335 49.665.02 32 0zm21.18 46.34a9.609 9.609 0 0 0-9.447-7.94H38.4v-2.465a9.563 9.563 0 0 0 3.174-6.637 9.615 9.615 0 0 0 4.293-7.965v-1.066a9.61 9.61 0 0 0-9.6-9.6H19.2c-.59 0-1.067.477-1.067 1.066v9.6a9.615 9.615 0 0 0 4.293 7.965 9.563 9.563 0 0 0 3.174 6.637V38.4h-5.333a9.609 9.609 0 0 0-9.447 7.94C3.577 35.67 5.4 21.28 15.073 12.753c9.674-8.526 24.18-8.526 33.854 0s11.496 22.917 4.253 33.585zM32 36.266a7.476 7.476 0 0 1-7.467-7.467v-8.944c2.09.974 4.51.943 6.575-.084a5.45 5.45 0 0 1 2.423-.572h.521a5.42 5.42 0 0 1 5.415 5.414V28.8A7.476 7.476 0 0 1 32 36.267zm4.267 1.12v2.08a4.267 4.267 0 0 1-8.534 0v-2.08a9.493 9.493 0 0 0 8.534 0zm-2.215-20.32h-.521a7.597 7.597 0 0 0-3.376.796 5.44 5.44 0 0 1-4.843 0l-1.369-.684a1.067 1.067 0 0 0-1.543.954v8.408a7.478 7.478 0 0 1-2.133-5.208V12.8h16a7.476 7.476 0 0 1 7.466 7.467v1.066a7.478 7.478 0 0 1-2.133 5.208v-1.927a7.557 7.557 0 0 0-7.548-7.547zM51.2 54.853a29.958 29.958 0 0 1-5.333 3.588v-8.308a1.067 1.067 0 0 0-2.134 0v9.33a29.833 29.833 0 0 1-23.466 0v-9.33a1.067 1.067 0 0 0-2.134 0v8.308a29.958 29.958 0 0 1-5.333-3.588V48a7.476 7.476 0 0 1 7.467-7.467h5.429a6.393 6.393 0 0 0 12.608 0h5.43A7.476 7.476 0 0 1 51.2 48v6.853zm2.133-1.98V49.69c9.364-11.273 8.342-27.886-2.335-37.925-10.676-10.04-27.32-10.04-37.996 0-10.677 10.039-11.7 26.652-2.335 37.925v3.184C-.822 41.148-.694 22.349 10.953 10.78 22.6-.787 41.4-.787 53.047 10.78c11.647 11.568 11.775 30.367.286 42.093z"/>
                </g>
            </g>
        </g>
    </g>
</svg>
