<svg xmlns="http://www.w3.org/2000/svg" xmlns:xlink="http://www.w3.org/1999/xlink" width="562" height="468" viewBox="0 0 562 468">
    <defs>
        <path id="b" d="M17.375 361.22C7.78 361.22 0 353.44 0 343.843v-318.8h458.834v318.8c0 9.598-7.779 17.379-17.375 17.379H17.375z"/>
        <filter id="a" width="122.7%" height="130.9%" x="-11.3%" y="-14.9%" filterUnits="objectBoundingBox">
            <feOffset dy="2" in="SourceAlpha" result="shadowOffsetOuter1"/>
            <feGaussianBlur in="shadowOffsetOuter1" result="shadowBlurOuter1" stdDeviation="17"/>
            <feColorMatrix in="shadowBlurOuter1" values="0 0 0 0 0 0 0 0 0 0 0 0 0 0 0 0 0 0 0.175890516 0"/>
        </filter>
    </defs>
    <g fill="none" fill-rule="evenodd">
        <path d="M0 359h562v109H0z"/>
        <path fill="#F9E3D9" d="M433.538 359.514c-39.36 1.403-161.365 4.975-235.753.74C59.85 352.409-50.812 382.96 24.285 407.4c20.987 6.829-35.755 57.233 109.976 60.4 127.925 2.778 256.73-24.046 319.13-35.925 62.4-11.884 90.583-28.695 103.68-36.292 11.517-6.687 14.05-40.977-123.533-36.068" opacity=".173"/>
        <g transform="translate(46 37.548)">
            <use fill="#000" filter="url(#a)" xlink:href="#b"/>
            <use fill="#FFF" xlink:href="#b"/>
        </g>
        <path fill="#4D274E" d="M504.835 62.98H46V49.886C46 43.873 50.872 39 56.883 39h437.069c6.01 0 10.883 4.873 10.883 10.885V62.98z"/>
        <path fill="#FFF" d="M64.808 53.21a3.157 3.157 0 1 1-6.314 0 3.157 3.157 0 0 1 6.314 0M80.887 53.21a3.157 3.157 0 1 1-6.313 0 3.157 3.157 0 0 1 6.313 0M96.966 53.21a3.157 3.157 0 1 1-6.314 0 3.157 3.157 0 0 1 6.314 0"/>
        <path fill="#4D274E" d="M382.764 209.137c0 8.77-7.107 15.879-15.88 15.879H176.349c-8.77 0-15.88-7.11-15.88-15.88v-1.443c0-8.77 7.11-15.877 15.88-15.877h190.537c8.772 0 15.879 7.108 15.879 15.877v1.444z" opacity=".031"/>
        <path fill="#B5D1DE" d="M176.268 212.734h63.591v-8.638h-63.591z"/>
        <path fill="#D1DBEA" d="M247.001 212.734h127.103v-8.638H247.001z"/>
        <path fill="#E2642C" d="M111 208.416c0 9.616 7.797 17.413 17.412 17.413 9.617 0 17.416-7.797 17.416-17.413 0-9.617-7.799-17.416-17.416-17.416-9.615 0-17.412 7.799-17.412 17.416"/>
        <g>
            <path fill="#4D274E" d="M351.453 358.049c0 8.77-7.109 15.879-15.88 15.879H175.347c-8.77 0-15.879-7.108-15.879-15.88v-23.094c0-8.77 7.11-15.88 15.88-15.88h160.223c8.772 0 15.881 7.11 15.881 15.88v23.095z" opacity=".031"/>
            <path fill="#E2642C" d="M110 336.415c0 9.616 7.797 17.414 17.412 17.414 9.617 0 17.416-7.798 17.416-17.414 0-9.619-7.799-17.415-17.416-17.415-9.615 0-17.412 7.796-17.412 17.415"/>
            <path fill="#B5D1DE" d="M175.27 340.732h106.894v-8.637H175.27z"/>
            <path fill="#D1DBEA" d="M292.27 340.732h33.2v-8.637h-33.2zM175.27 359.498h75.138v-8.638H175.27z"/>
        </g>
        <g>
            <path fill="#F9D05E" d="M360 97c0 12.702-10.297 23-22.997 23C324.297 120 314 109.702 314 97c0-12.701 10.297-23 23.003-23C349.703 74 360 84.299 360 97"/>
            <path fill="#F4C249" d="M358.08 87c.301 1.488.46 3.03.46 4.606 0 12.924-10.534 23.402-23.53 23.402a23.527 23.527 0 0 1-19.01-9.616A22.985 22.985 0 0 0 337.019 119C349.709 119 360 108.766 360 96.141c0-3.25-.688-6.341-1.92-9.141"/>
            <path stroke="#2F3844" d="M327 106.103c3.778 2.688 8.56 3.662 13.314 2.255 4.753-1.406 8.522-4.909 10.686-9.358"/>
            <path fill="#2F3844" d="M332 92a3 3 0 1 1-5.999 0A3 3 0 0 1 332 92"/>
            <path stroke="#2F3844" stroke-linecap="round" stroke-linejoin="round" d="M349.883 90L344 91.94l6 2.06"/>
            <path fill="#E2642C" d="M161 135c0 12.703-10.296 23-23 23-12.702 0-23-10.297-23-23s10.298-23 23-23c12.704 0 23 10.297 23 23"/>
            <path fill="#FFF" d="M146.495 128.572c-2.012-2.096-5.273-2.096-7.283 0L138 129.835l-1.212-1.263c-2.012-2.096-5.27-2.096-7.284 0-2.005 2.095-2.005 5.487 0 7.58l1.219 1.267L138 145l7.277-7.581 1.218-1.267c2.007-2.096 2.007-5.493 0-7.58"/>
            <path fill="#0095EF" d="M225 104c0 12.702-10.297 23-23 23s-23-10.298-23-23c0-12.704 10.297-23 23-23s23 10.296 23 23"/>
            <path fill="#FFF" d="M212.637 99.307h-8.302c.405-.88.882-1.98.999-2.537.113-.566 0-1.922 0-1.922 0-1.02-.876-1.848-1.95-1.848h-.975v2.852S199 99.615 199 101.153v9c0 1.018.873 1.847 1.95 1.847h6.815c1.074 0 2.263-.83 2.655-1.847l3.454-9c.392-1.02-.16-1.846-1.237-1.846"/>
            <path fill="#FFF" d="M198 111h2v-11h-2zM191 112h4V99h-4z"/>
            <path fill="#F9D05E" d="M315 142.5c0 8.007-6.492 14.5-14.499 14.5-8.01 0-14.501-6.493-14.501-14.5 0-8.008 6.491-14.5 14.501-14.5 8.007 0 14.499 6.492 14.499 14.5"/>
            <path fill="#F4C249" d="M313.78 137c.19.93.292 1.893.292 2.879 0 8.077-6.705 14.626-14.974 14.626-4.973 0-9.375-2.368-12.098-6.01 2.272 5.01 7.403 8.505 13.375 8.505 8.076 0 14.625-6.397 14.625-14.286 0-2.033-.439-3.965-1.22-5.714"/>
            <path stroke="#2F3844" d="M293 146c1.98 1.843 4.831 3 8.001 3 3.168 0 6.018-1.157 7.999-3"/>
            <path fill="#2F3844" d="M298 140.001a2 2 0 1 1-2-2.001 2 2 0 0 1 2 2.001M308 140.001a1.998 1.998 0 0 1-1.999 1.999 1.999 1.999 0 1 1 0-4 2 2 0 0 1 1.999 2.001"/>
            <path fill="#F9D05E" d="M284 45c0 9.388-7.613 17-17 17-9.39 0-17-7.612-17-17 0-9.39 7.61-17 17-17 9.387 0 17 7.61 17 17"/>
            <path fill="#F4C249" d="M282.562 38c.222 1.117.343 2.272.343 3.454 0 9.694-7.902 17.552-17.647 17.552A17.652 17.652 0 0 1 251 51.795 17.242 17.242 0 0 0 266.762 62C276.281 62 284 54.324 284 44.856A17.03 17.03 0 0 0 282.562 38"/>
            <path stroke="#2F3844" d="M258 49c2.352 2.457 5.737 4 9.5 4 3.764 0 7.148-1.543 9.5-4M271 42c0-1.104 1.118-2 2.499-2 1.38 0 2.501.896 2.501 2M259 42c0-1.104 1.119-2 2.498-2 1.381 0 2.502.896 2.502 2"/>
            <path fill="#0095EF" d="M273 153c0 8.836-7.165 16-16.001 16-8.837 0-15.999-7.164-15.999-16s7.162-16 15.999-16c8.836 0 16.001 7.164 16.001 16"/>
            <g fill="#FFF">
                <path d="M263.029 149.648h-5.901c.29-.65.626-1.46.709-1.87.082-.417 0-1.417 0-1.417 0-.75-.621-1.361-1.388-1.361h-.691v2.102s-2.425 2.773-2.425 3.907v6.63c0 .75.623 1.361 1.388 1.361h4.844c.767 0 1.612-.61 1.889-1.36l2.458-6.631c.276-.752-.118-1.361-.883-1.361M248 159h3.2v-9.692H248z"/>
            </g>
            <path fill="#FFF" d="M254 158h2v-7h-2z"/>
            <path fill="#E2642C" d="M253 80.501C253 86.85 247.85 92 241.5 92c-6.352 0-11.5-5.15-11.5-11.499C230 74.148 235.148 69 241.5 69c6.35 0 11.5 5.148 11.5 11.501"/>
            <path fill="#FFF" d="M246.173 76.873a2.734 2.734 0 0 0-4.006 0l-.665.702-.668-.702a2.736 2.736 0 0 0-4.007 0c-1.103 1.164-1.103 3.049 0 4.212l.67.704L241.502 86l4.002-4.21.669-.705c1.103-1.166 1.103-3.052 0-4.212"/>
            <path fill="#0095EF" d="M389 39c0 12.702-10.298 23-23 23-12.704 0-23-10.298-23-23 0-12.703 10.296-23 23-23 12.702 0 23 10.297 23 23"/>
            <path fill="#FFF" d="M376.94 34.158h-8.288c.406-.892.88-2.005.996-2.571.112-.573 0-1.948 0-1.948 0-1.033-.872-1.872-1.948-1.872h-.97v2.89s-3.404 3.815-3.404 5.373v9.12c0 1.033.87 1.873 1.947 1.873h6.801c1.075 0 2.262-.84 2.652-1.872l3.45-9.12c.393-1.033-.161-1.873-1.236-1.873M354.767 47.023h4.28V34.186h-4.28z"/>
            <path fill="#0095EF" d="M378 165c0 8.835-7.164 16-15.999 16-8.837 0-16.001-7.165-16.001-16 0-8.837 7.164-16 16.001-16 8.835 0 15.999 7.163 15.999 16"/>
            <path fill="#FFF" d="M370 161.647h-6.088c.296-.65.647-1.458.728-1.87.087-.417 0-1.416 0-1.416 0-.75-.638-1.361-1.428-1.361h-.712v2.102s-2.5 2.773-2.5 3.906v6.63c0 .75.64 1.362 1.429 1.362h4.998c.79 0 1.66-.612 1.945-1.362l2.535-6.63c.289-.752-.118-1.361-.908-1.361"/>
            <path fill="#FFF" d="M359 170h2v-7h-2zM354 172h3v-10h-3z"/>
            <path fill="#E2642C" d="M561 100.5c0 6.35-5.15 11.5-11.501 11.5-6.35 0-11.499-5.15-11.499-11.5S543.15 89 549.499 89C555.85 89 561 94.15 561 100.5"/>
            <path fill="#FFF" d="M553.94 97.14a2.614 2.614 0 0 0-3.807 0l-.634.658-.632-.658a2.614 2.614 0 0 0-3.807 0c-1.05 1.094-1.05 2.87 0 3.963l.636.661 3.803 3.963 3.806-3.963.635-.661c1.05-1.096 1.05-2.873 0-3.963"/>
            <path fill="#0095EF" d="M318 11.5c0 6.35-5.15 11.5-11.499 11.5C300.148 23 295 17.85 295 11.5 295 5.15 300.148 0 306.501 0 312.85 0 318 5.149 318 11.5"/>
            <path fill="#FFF" d="M311.362 9.32h-3.871c.187-.464.41-1.042.464-1.336.054-.297 0-1.012 0-1.012 0-.536-.409-.972-.912-.972h-.453v1.501S305 9.482 305 10.291v4.737c0 .537.407.972.91.972h3.18c.5 0 1.056-.435 1.24-.972l1.612-4.736c.182-.537-.078-.971-.58-.971M301 16h2v-6h-2zM308 110h1v-5h-1z"/>
            <path fill="#0095EF" d="M133 158.001c0 6.075-4.924 10.999-10.999 10.999-6.076 0-11.001-4.924-11.001-10.999 0-6.077 4.925-11.001 11.001-11.001 6.075 0 10.999 4.924 10.999 11.001"/>
            <path fill="#FFF" d="M127.362 155.32h-3.873c.19-.465.412-1.042.465-1.334.053-.3 0-1.013 0-1.013 0-.537-.407-.973-.909-.973h-.455v1.502s-1.59 1.98-1.59 2.79v4.736c0 .535.407.972.91.972h3.18c.501 0 1.055-.437 1.238-.972l1.614-4.736c.182-.537-.078-.973-.58-.973M116 162h2v-6h-2z"/>
            <path fill="#F9D05E" d="M524 67c0 12.702-10.298 23-22.999 23C488.298 90 478 79.702 478 67c0-12.703 10.298-23 23.001-23C513.701 44 524 54.297 524 67"/>
            <path fill="#F4C249" d="M522.082 58c.3 1.49.457 3.03.457 4.608 0 12.923-10.534 23.4-23.53 23.4-7.811 0-14.73-3.79-19.009-9.616A22.988 22.988 0 0 0 501.017 90C513.71 90 524 79.766 524 67.143c0-3.252-.688-6.342-1.918-9.143"/>
            <path stroke="#2F3844" d="M505 62c0-1.678 1.345-4 3-4 1.66 0 3 2.322 3 4M490 62c0-1.678 1.343-4 3-4s3 2.322 3 4"/>
            <path fill="#2F3844" d="M500.501 70.877c-5.596 0-10.866-.68-15.501-1.875C486.541 76.432 492.893 82 500.501 82c7.604 0 13.958-5.568 15.499-13-4.635 1.197-9.904 1.877-15.499 1.877"/>
            <path fill="#EAEEF1" d="M485 70.001a13.437 13.437 0 0 0 1.249 3.26c4.237 1.107 9.09 1.739 14.252 1.739 5.16 0 10.012-.632 14.25-1.74A13.402 13.402 0 0 0 516 70c-4.635 1.048-9.904 1.643-15.5 1.643-5.595 0-10.865-.595-15.5-1.642"/>
            <path fill="#F16C81" d="M509 79.5a15.568 15.568 0 0 0-8.5-2.5c-3.15 0-6.072.924-8.5 2.5a15.564 15.564 0 0 0 8.5 2.5 15.56 15.56 0 0 0 8.5-2.5"/>
            <path stroke="#2F3844" stroke-linecap="round" stroke-linejoin="round" d="M500.501 70.877c-5.596 0-10.866-.68-15.501-1.875C486.541 76.432 492.893 82 500.501 82c7.604 0 13.958-5.568 15.499-13-4.635 1.197-9.904 1.877-15.499 1.877z"/>
            <path fill="#F9D05E" d="M285 103.5c0 5.8-4.701 10.5-10.5 10.5-5.798 0-10.5-4.7-10.5-10.5S268.702 93 274.5 93c5.799 0 10.5 4.7 10.5 10.5"/>
            <path fill="#F4C249" d="M284.129 99.3c.137.683.208 1.39.208 2.116 0 5.937-4.777 10.75-10.666 10.75-3.542 0-6.678-1.74-8.621-4.417 1.62 3.683 5.276 6.251 9.53 6.251 5.754 0 10.42-4.7 10.42-10.5 0-1.495-.313-2.913-.871-4.2"/>
            <path stroke="#2F3844" d="M269.25 105.6c1.429 1.29 3.487 2.1 5.776 2.1 2.288 0 4.345-.81 5.774-2.1"/>
            <path fill="#2F3844" d="M272.4 100.875a1.574 1.574 0 1 1-3.151.001 1.574 1.574 0 0 1 3.151-.001M279.75 100.875a1.575 1.575 0 1 1-3.15 0 1.575 1.575 0 0 1 3.15 0"/>
            <path fill="#F9D05E" d="M406 81.5c0 5.798-4.7 10.5-10.5 10.5-5.798 0-10.5-4.702-10.5-10.5 0-5.8 4.702-10.5 10.5-10.5 5.8 0 10.5 4.7 10.5 10.5"/>
            <path fill="#F4C249" d="M404.128 77c.136.698.208 1.422.208 2.16 0 6.058-4.79 10.968-10.696 10.968-3.549 0-6.693-1.775-8.64-4.507 1.623 3.757 5.289 6.379 9.553 6.379C400.323 92 405 87.202 405 81.287c0-1.525-.312-2.973-.872-4.287"/>
            <path stroke="#2F3844" d="M389 84c1.484 1.228 3.622 2 5.999 2s4.516-.772 6.001-2M396 79c0-1.103.672-2 1.5-2 .829 0 1.5.897 1.5 2M390 79c0-1.103.674-2 1.5-2 .83 0 1.5.897 1.5 2"/>
            <path fill="#F9D05E" d="M169 84c0 7.731-6.267 14-14 14s-14-6.269-14-14 6.267-14 14-14 14 6.269 14 14"/>
            <path fill="#F4C249" d="M167.824 78c.184.883.281 1.799.281 2.735 0 7.675-6.465 13.895-14.44 13.895-4.794 0-9.04-2.249-11.665-5.71 2.192 4.76 7.138 8.08 12.897 8.08C162.687 97 169 90.923 169 83.428c0-1.93-.422-3.766-1.176-5.428"/>
            <path stroke="#2F3844" d="M157 81c0-1.259.896-3 2-3s2 1.741 2 3M148 81c0-1.259.895-3 2-3 1.106 0 2 1.741 2 3"/>
            <path fill="#2F3844" d="M155.001 87.01c-3.249 0-6.309-.367-9.001-1.01.895 4 4.584 7 9.001 7s8.104-3 8.999-7c-2.69.643-5.749 1.01-8.999 1.01"/>
            <path fill="#EAEEF1" d="M146 85c.158.686.406 1.342.726 1.958C149.188 87.62 152.006 88 155 88c2.996 0 5.814-.38 8.274-1.044A8.21 8.21 0 0 0 164 85c-2.69.628-5.749.986-8.999.986-3.249 0-6.308-.358-9.001-.986"/>
            <path fill="#F16C81" d="M160 91.5c-1.571-.947-3.461-1.5-5.5-1.5s-3.93.553-5.5 1.5c1.57.944 3.461 1.5 5.5 1.5s3.929-.556 5.5-1.5"/>
            <path stroke="#2F3844" stroke-linecap="round" stroke-linejoin="round" d="M155.001 87.01c-3.249 0-6.309-.367-9.001-1.01.895 4 4.584 7 9.001 7s8.104-3 8.999-7c-2.69.643-5.749 1.01-8.999 1.01z"/>
            <path fill="#F9D05E" d="M189 155.5c0 5.8-4.702 10.5-10.502 10.5-5.797 0-10.498-4.7-10.498-10.5 0-5.798 4.701-10.5 10.498-10.5 5.8 0 10.502 4.702 10.502 10.5"/>
            <path fill="#F4C249" d="M188.127 151c.136.699.209 1.421.209 2.161 0 6.058-4.788 10.968-10.694 10.968-3.552 0-6.695-1.774-8.642-4.505 1.625 3.755 5.29 6.376 9.552 6.376 5.77 0 10.448-4.797 10.448-10.713a10.89 10.89 0 0 0-.873-4.287"/>
            <path stroke="#2F3844" d="M174 160.84c1.889 1.076 4.28 1.466 6.656.903 2.377-.563 4.26-1.963 5.344-3.743"/>
            <path fill="#2F3844" d="M176 154.5a1.5 1.5 0 1 1-3 0 1.5 1.5 0 0 1 3 0"/>
            <path stroke="#2F3844" stroke-linecap="round" stroke-linejoin="round" stroke-width=".5" d="M183.94 154l-2.94.972 3 1.028"/>
            <path fill="#F9D05E" d="M461 92c0 7.18-5.822 13-13.003 13-7.18 0-12.997-5.82-12.997-13 0-7.178 5.817-13 12.997-13S461 84.822 461 92"/>
            <path fill="#F4C249" d="M459.954 88c.161.838.248 1.705.248 2.592 0 7.27-5.746 13.162-12.833 13.162-4.262 0-8.034-2.129-10.369-5.409 1.947 4.509 6.347 7.655 11.462 7.655 6.924 0 12.538-5.756 12.538-12.858 0-1.83-.377-3.568-1.046-5.142"/>
            <path stroke="#2F3844" d="M443 97.551c2.203 1.344 4.994 1.831 7.767 1.128 2.774-.703 4.972-2.455 6.233-4.679"/>
            <path fill="#2F3844" d="M446 90a2 2 0 1 1-4 0 2 2 0 0 1 4 0"/>
            <path stroke="#2F3844" stroke-linecap="round" stroke-linejoin="round" d="M455.941 89l-2.941.97 3 1.03"/>
            <path fill="#E2642C" d="M442 11.501C442 17.851 436.85 23 430.5 23c-6.351 0-11.5-5.15-11.5-11.499C419 5.149 424.149 0 430.5 0c6.35 0 11.5 5.149 11.5 11.501"/>
            <path fill="#FFF" d="M435.173 7.785c-1.106-1.047-2.9-1.047-4.005 0l-.667.631-.666-.63c-1.108-1.048-2.9-1.048-4.007 0a2.585 2.585 0 0 0 0 3.791l.67.633L430.5 16l4-3.79.672-.633a2.587 2.587 0 0 0 0-3.792"/>
        </g>
        <g>
            <path fill="#4D274E" d="M351.453 292.371c0 8.77-7.109 15.88-15.88 15.88H175.347c-8.77 0-15.879-7.11-15.879-15.88v-40.418c0-8.77 7.11-15.879 15.88-15.879h160.223c8.772 0 15.881 7.11 15.881 15.88v40.417z" opacity=".031"/>
            <path fill="#B5D1DE" d="M175.27 257.732h70.808v-8.636H175.27z"/>
            <path fill="#D1DBEA" d="M256.182 257.732h69.287v-8.636h-69.287zM175.27 276.498h132.878v-8.64H175.27zM175.27 295.264h99.677v-8.64H175.27z"/>
            <path fill="#E2642C" d="M110 253.414c0 9.617 7.797 17.413 17.412 17.413 9.617 0 17.416-7.796 17.416-17.413S137.029 236 127.412 236c-9.615 0-17.412 7.797-17.412 17.414"/>
            <g fill="#FFF">
                <path d="M135.09 251.316h-5.533c.272-.603.587-1.355.665-1.737.077-.386 0-1.315 0-1.315 0-.696-.582-1.264-1.301-1.264h-.648v1.952S126 251.527 126 252.58v6.157c0 .696.583 1.263 1.301 1.263h4.542c.718 0 1.51-.567 1.77-1.263l2.304-6.157c.26-.699-.11-1.264-.827-1.264M121 260h3v-9h-3z"/>
            </g>
        </g>
        <path fill="#FFF" d="M134.022 204.048c-1.308-1.397-3.428-1.397-4.734 0l-.788.842-.788-.842c-1.307-1.397-3.425-1.397-4.734 0-1.304 1.396-1.304 3.658 0 5.053l.792.845L128.5 215l4.73-5.054.792-.845c1.304-1.397 1.304-3.662 0-5.053"/>
        <g>
            <path fill="#F9D05E" d="M137 337c0 5.524-4.477 10-10 10-5.522 0-10-4.476-10-10 0-5.523 4.478-10 10-10 5.523 0 10 4.477 10 10"/>
            <path fill="#F4C249" d="M136.17 333c.131.65.199 1.324.199 2.016 0 5.653-4.55 10.237-10.159 10.237-3.373 0-6.36-1.657-8.21-4.206 1.543 3.507 5.025 5.953 9.076 5.953 5.48 0 9.924-4.476 9.924-10 0-1.423-.298-2.775-.83-4"/>
            <path stroke="#2F3844" d="M122 339c1.36 1.228 3.32 2 5.5 2s4.14-.772 5.5-2"/>
            <path fill="#2F3844" d="M125 334.5a1.5 1.5 0 1 1-3.001.001A1.5 1.5 0 0 1 125 334.5M132 334.5a1.5 1.5 0 1 1-3 0 1.5 1.5 0 0 1 3 0"/>
        </g>
    </g>
</svg>
