<svg xmlns="http://www.w3.org/2000/svg" width="123" height="101" viewBox="0 0 123 101">
    <g fill="none" fill-rule="evenodd">
        <path fill="#E2642C" d="M2.371 16.336c8.647-10.954 36.516-2.088 42.903-2.875C51.66 12.644 62.387-2.606 72.329.39 89.743 5.624 83.055 29.922 88.9 37.94c8.165 11.196 35.492 5.84 34.046 24.208-2.923 38.156-45.404 22.694-64.686 19.456-21.06-3.57-30.67 31.984-51.91 13.556-17.084-14.827 12.653-33.92 15.033-42.514 2.23-7.928-30.249-22.028-19.01-36.31z" opacity=".032"/>
        <g transform="translate(23.314 .804)">
            <path fill="#493633" fill-rule="nonzero" d="M27.293 57.026c-.179-.002-.355-.01-.533-.014v1.39h.533v-1.376z"/>
            <path fill="#342421" fill-rule="nonzero" d="M27.293 57.026v1.377h.608v-1.39c-.19.003-.38.014-.57.014l-.038-.001z"/>
            <path fill="#FDBB47" fill-rule="nonzero" d="M26.76 58.403h-.357c-1.012 0-1.833.821-1.833 1.833v.377h2.723v-2.21h-.533z"/>
            <path fill="#FAA338" fill-rule="nonzero" d="M27.293 60.613h2.721v-.377c0-1.012-.82-1.833-1.832-1.833h-.889v2.21z"/>
            <path fill="#493633" fill-rule="nonzero" d="M6.763 47.471a26.948 26.948 0 0 1-3.931-6.196l10.817 27.96h1.528L6.763 47.472zM11.167 51.637l5.615 17.599h1.33l-5.236-16.423a26.708 26.708 0 0 1-1.709-1.176zM16.252 54.64l4.452 14.596h1.281l-4.261-13.98c-.498-.191-.989-.397-1.472-.615z"/>
            <path fill="#342421" fill-rule="nonzero" d="M47.786 47.602L39.42 69.236h1.528l10.532-27.223a26.963 26.963 0 0 1-3.695 5.589zM41.707 52.863l-5.22 16.373h1.329l5.595-17.537c-.55.411-1.122.796-1.704 1.164zM36.866 55.284l-4.253 13.952h1.281l4.443-14.562c-.484.216-.973.421-1.47.61z"/>
            <path fill="#F6D276" fill-rule="nonzero" d="M45.36 30.098c0 14.385-7.553 26.135-17.059 26.889a26.822 26.822 0 0 0 8.565-1.703c.498-.189.987-.393 1.47-.61a26.784 26.784 0 0 0 3.371-1.81 26.844 26.844 0 0 0 1.704-1.165 27.092 27.092 0 0 0 4.375-4.097 26.816 26.816 0 0 0 6.474-17.504c0-7.934-3.432-15.064-8.89-19.992h-5.963c3.655 4.928 5.952 12.059 5.952 19.992z"/>
            <path fill="#F6E7AA" fill-rule="nonzero" d="M27.901 57.012c.093-.002.182-.014.275-.017-.28.019-.562.032-.846.032.192 0 .38-.01.571-.015zM11.167 51.637c.552.415 1.124.804 1.708 1.176a26.881 26.881 0 0 0 4.849 2.443 26.818 26.818 0 0 0 8.632 1.73C16.852 56.23 9.302 44.483 9.302 30.099c0-7.933 2.297-15.064 5.951-19.992H9.292C3.834 15.034.402 22.165.402 30.098c0 2.825.436 5.548 1.243 8.106a26.838 26.838 0 0 0 1.186 3.072 27.097 27.097 0 0 0 8.336 10.361z"/>
            <path fill="#F6E7AA" fill-rule="nonzero" d="M27.33 57.027l-.037-.001c-.27-.001-.537-.013-.803-.03.091.002.18.014.27.016.178.004.354.013.533.014h.038z"/>
            <path fill="#E2642C" fill-rule="nonzero" d="M27.33 57.027c.284 0 .566-.013.846-.032.042-.002.083-.007.126-.008 9.505-.754 17.058-12.504 17.058-26.89 0-7.932-2.298-15.063-5.952-19.991H32.07c1.433 4.928 2.335 12.059 2.335 19.992 0 14.872-3.168 26.929-7.074 26.929z"/>
            <path stroke="#FDBB47" stroke-linecap="round" stroke-linejoin="round" d="M28.176 56.995c.042-.002.083-.007.125-.008"/>
            <path fill="#E2642C" fill-rule="nonzero" d="M27.293 57.025l.038.001c-.013 0-.026-.003-.038-.003-3.89-.078-7.037-12.101-7.037-26.926 0-7.933.901-15.063 2.336-19.991h-7.338c-3.655 4.928-5.952 12.058-5.952 19.991 0 14.384 7.55 26.133 17.054 26.89.045 0 .09.006.134.008.266.018.534.03.803.03z"/>
            <path stroke="#FDBB47" stroke-linecap="round" stroke-linejoin="round" d="M26.356 56.987c.045.001.09.007.134.008"/>
            <path fill="#F6D276" fill-rule="nonzero" d="M27.33 57.027c3.908 0 7.075-12.056 7.075-26.93 0-7.932-.901-15.063-2.335-19.991h-4.777v46.917c.012 0 .025.004.038.004z"/>
            <path fill="#F6E7AA" fill-rule="nonzero" d="M27.293 57.023V10.106H22.59c-1.434 4.928-2.336 12.058-2.336 19.991 0 14.825 3.148 26.848 7.038 26.926z"/>
            <path fill="#471E48" fill-rule="nonzero" d="M27.293 7.082v3.024h18.154c.442 0 .646-.539.324-.842a27.107 27.107 0 0 0-2.757-2.267.503.503 0 0 1-.28.085H27.292z"/>
            <path fill="#471E48" fill-rule="nonzero" d="M22.591 10.106h4.702V7.082H11.928a.5.5 0 0 1-.28-.084A27.057 27.057 0 0 0 8.89 9.265c-.322.302-.118.84.324.84H22.591z"/>
            <path fill="#FDBB47" fill-rule="nonzero" d="M24.056.63c-.162.023-.322.05-.483.075.048-.007.097-.01.145-.017.113-.018.224-.042.338-.057zM23.274.753c-.221.037-.441.076-.66.12.136-.028.275-.045.412-.07.084-.015.165-.036.248-.05zM31.088.705c-.161-.025-.32-.052-.483-.074.114.015.225.04.338.056.048.008.097.01.145.018zM35.156 1.703c-.073-.025-.144-.053-.218-.077l-.026.002c.08.026.164.047.244.075zM30.48.617A23.924 23.924 0 0 0 29.396.5c.12.01.235.03.354.043.243.024.488.041.728.073zM32.047.873c-.218-.043-.439-.083-.66-.12.084.014.165.036.248.051.137.024.276.041.412.069zM19.724 1.626c-.074.024-.146.052-.219.077.08-.027.163-.048.244-.075l-.025-.002zM20.951 1.26c-.414.112-.824.232-1.227.366.171-.057.35-.098.524-.15.235-.073.466-.152.703-.216zM25.264.501c-.364.03-.724.07-1.082.116.24-.032.485-.05.728-.073.119-.012.235-.033.354-.043zM22.362.925c-.246.05-.491.103-.734.162.112-.027.228-.044.341-.07.132-.03.26-.065.393-.092zM33.034 1.087a24.067 24.067 0 0 0-.735-.162c.132.027.262.063.393.093.113.025.23.042.342.069zM21.397 1.146c-.12.03-.24.06-.359.092.073-.02.148-.034.222-.053.046-.012.09-.028.137-.04zM15.296 3.615zM36.632 2.262zM33.622 1.237l-.359-.091c.047.011.092.027.138.039.073.019.148.032.221.052zM34.937 1.626a23.75 23.75 0 0 0-1.227-.366c.238.064.469.144.703.215.174.053.353.094.524.15z"/>
            <path fill="#E2642C" fill-rule="nonzero" d="M27.293 7.082V4.496c-4.432-.001-8.55-.325-11.997-.88a23.23 23.23 0 0 0-3.698 2.644.459.459 0 0 0 .05.738.5.5 0 0 0 .28.084h15.365zm-2.368-1.823a.704.704 0 1 1 0 1.408.704.704 0 0 1 0-1.408zm-4.955 0a.704.704 0 1 1 0 1.408.704.704 0 0 1 0-1.408zm-4.955 0a.704.704 0 1 1 0 1.408.704.704 0 0 1 0-1.408z"/>
            <path fill="#E2642C" fill-rule="nonzero" d="M27.293 4.496v2.586h15.44c.11 0 .204-.033.281-.084a.46.46 0 0 0 .05-.738 23.25 23.25 0 0 0-3.698-2.644c-3.458.556-7.59.88-12.035.88h-.038zm12.496.763a.704.704 0 1 1 0 1.408.704.704 0 0 1 0-1.408zm-4.955 0a.704.704 0 1 1 0 1.408.704.704 0 0 1 0-1.408zm-4.954 0a.704.704 0 1 1 0 1.408.704.704 0 0 1 0-1.408z"/>
            <path fill="#F6E7AA" fill-rule="nonzero" d="M27.33.411zM28.796.46c-.1-.006-.202-.01-.302-.015.22.012.442.023.662.04-.12-.01-.24-.018-.36-.025zM24.91.544c-.243.024-.488.041-.728.073-.042.005-.084.008-.126.014-.114.015-.225.04-.338.057.394-.06.792-.105 1.192-.144zM34.413 1.475c-.234-.072-.465-.151-.703-.216l-.088-.022c-.073-.02-.148-.034-.22-.052.34.088.676.188 1.01.29zM23.026.804c-.137.024-.276.042-.412.069-.085.016-.168.035-.252.052-.132.027-.261.063-.393.093.35-.08.702-.151 1.057-.214zM30.943.687c-.113-.017-.224-.04-.338-.056-.042-.006-.084-.01-.126-.014-.24-.032-.485-.05-.728-.073.4.04.798.085 1.192.143zM32.692 1.018c-.131-.03-.26-.066-.393-.093-.084-.017-.167-.036-.251-.052-.136-.027-.276-.045-.412-.07.355.064.707.136 1.056.215zM21.26 1.185c-.074.019-.149.033-.222.052l-.087.022c-.237.065-.468.144-.703.216.335-.102.67-.202 1.012-.29zM27.33.411l-.037.001.038-.001zM25.865.46a25.543 25.543 0 0 0 .326-.016l-.326.016zM27.293 2.048a66.007 66.007 0 0 1-7.544-.42c-.08.026-.164.047-.244.075l-.064.023a23.665 23.665 0 0 0-4.145 1.89c3.447.555 7.565.879 11.996.88V2.049z"/>
            <path fill="#F6D276" fill-rule="nonzero" d="M27.33 2.049l-.037-.001v2.448h.038c4.446 0 8.577-.324 12.035-.88v-.001a23.788 23.788 0 0 0-2.734-1.354l-.02-.008c-.456-.19-.92-.366-1.391-.528l-.065-.023c-.08-.027-.163-.048-.244-.075-2.299.27-4.865.422-7.581.422z"/>
            <path fill="#471E48" fill-rule="nonzero" d="M27.293 2.048h.038c2.716 0 5.282-.152 7.581-.42l.026-.002c-.172-.057-.352-.098-.525-.15-.335-.103-.67-.203-1.012-.291-.046-.012-.09-.028-.138-.04-.077-.019-.152-.04-.23-.058-.112-.027-.228-.044-.341-.07-.35-.078-.702-.15-1.057-.213-.083-.015-.164-.037-.248-.051l-.299-.048c-.048-.007-.097-.01-.145-.018a24.695 24.695 0 0 0-1.192-.144c-.119-.012-.234-.033-.354-.042-.08-.007-.16-.011-.241-.017-.22-.017-.441-.028-.662-.04l-.342-.016c-.272-.01-.546-.017-.821-.017l-.038.002v1.635z"/>
            <path stroke="#493633" stroke-linecap="round" stroke-linejoin="round" d="M19.724 1.626h-.001"/>
            <path fill="#471E48" fill-rule="nonzero" d="M27.293 2.048V.413a23.356 23.356 0 0 0-1.102.031c-.229.012-.458.023-.686.04-.08.006-.161.01-.24.017-.12.01-.236.031-.355.043-.4.04-.798.085-1.191.144-.048.007-.098.01-.146.017l-.299.048c-.083.014-.164.035-.248.05-.355.064-.708.136-1.057.215-.113.025-.23.042-.341.069-.077.018-.153.04-.23.059-.047.011-.092.027-.138.04a23.58 23.58 0 0 0-1.012.29c-.173.052-.353.093-.524.15l.025.002c2.288.267 4.842.419 7.544.42z"/>
            <circle cx="15.015" cy="5.964" r="1" fill="#493633" fill-rule="nonzero"/>
            <circle cx="19.97" cy="5.964" r="1" fill="#493633" fill-rule="nonzero"/>
            <circle cx="24.925" cy="5.964" r="1" fill="#493633" fill-rule="nonzero"/>
            <circle cx="29.88" cy="5.964" r="1" fill="#493633" fill-rule="nonzero"/>
            <circle cx="34.834" cy="5.964" r="1" fill="#493633" fill-rule="nonzero"/>
            <circle cx="39.789" cy="5.964" r="1" fill="#493633" fill-rule="nonzero"/>
            <path fill="#471E48" fill-rule="nonzero" d="M13.662 71.67c1.174 2.516 3.896 8.064 5.073 8.064h8.558V71.67h-13.63zm3.745 2.973a.954.954 0 1 1 0-1.907.954.954 0 0 1 0 1.907zm6.678 0a.954.954 0 1 1 0-1.907.954.954 0 0 1 0 1.907zM27.293 79.734h8.595c1.177 0 3.899-5.548 5.073-8.064H27.293v8.064zm10.15-6.999a.954.954 0 1 1 0 1.909.954.954 0 0 1 0-1.909zm-6.679 0a.954.954 0 1 1 0 1.908.954.954 0 0 1 0-1.908z"/>
            <path fill="#E2642C" fill-rule="nonzero" d="M27.293 69.236H13.409a1.217 1.217 0 1 0 0 2.434H27.293v-2.434zM37.816 69.236H27.293v2.434H41.25a1.217 1.217 0 1 0 0-2.434h-3.435z"/>
            <circle cx="17.407" cy="73.689" r="1" fill="#E2642C" fill-rule="nonzero"/>
            <circle cx="24.085" cy="73.689" r="1" fill="#E2642C" fill-rule="nonzero"/>
            <circle cx="30.764" cy="73.689" r="1" fill="#E2642C" fill-rule="nonzero"/>
            <circle cx="37.443" cy="73.689" r="1" fill="#E2642C" fill-rule="nonzero"/>
            <path fill="#342421" fill-rule="nonzero" d="M30.042 65.033c.819 0 1.483-.664 1.483-1.483v-1.454c0-.819-.664-1.483-1.483-1.483h-2.749v8.623h.608v-4.202h2.141z"/>
            <path fill="#493633" fill-rule="nonzero" d="M24.57 60.613h-.027c-.819 0-1.483.664-1.483 1.483v1.454c0 .819.664 1.483 1.483 1.483h2.217v4.203h.533v-8.623H24.57z"/>
        </g>
    </g>
</svg>
