<svg xmlns="http://www.w3.org/2000/svg" width="228" height="79" viewBox="0 0 228 79">
    <g fill="none" fill-rule="evenodd">
        <path fill="#F6D276" d="M50 31.013L38.267 0 0 66zM2 66l48.813-34L75 53.269z"/>
        <path fill="#4D274E" d="M108.884 18.628c.717-.006 1.436-.007 2.153-.002l.01-1.624c-.725-.004-1.452-.002-2.176.003l.013 1.623zm9.67.237l.093-1.62c-.723-.042-1.446-.079-2.172-.11l-.069 1.622c.717.03 1.433.067 2.148.108zm-17.193.021c.715-.043 1.43-.08 2.15-.113l-.074-1.622c-.726.034-1.45.072-2.173.115l.097 1.62zm24.69.606l.176-1.614c-.72-.078-1.44-.152-2.163-.22l-.153 1.615c.714.068 1.427.14 2.14.219zm-32.189.04c.712-.08 1.425-.155 2.14-.224l-.157-1.616c-.723.07-1.444.146-2.164.227l.181 1.613zm39.641.976l.26-1.602c-.714-.116-1.43-.228-2.147-.334l-.237 1.606c.71.105 1.418.215 2.124.33zm-47.096.059c.707-.117 1.415-.229 2.125-.336l-.241-1.605c-.718.108-1.434.221-2.149.34l.265 1.6zm54.486 1.345l.344-1.585c-.707-.155-1.417-.303-2.127-.446l-.321 1.59c.703.142 1.405.29 2.104.441zm-61.876.08c.7-.154 1.401-.303 2.104-.447l-.324-1.59c-.711.145-1.42.296-2.128.452l.348 1.584zm69.182 1.71l.427-1.565c-.698-.191-1.398-.377-2.1-.557l-.405 1.572c.695.178 1.388.362 2.078.55zm-76.487.1c.691-.19 1.384-.377 2.078-.557l-.407-1.571c-.703.182-1.403.37-2.102.563l.431 1.565zm83.69 2.073l.508-1.542c-.687-.227-1.377-.449-2.069-.666l-.486 1.548c.685.216 1.367.435 2.047.66zm-90.889.119c.68-.227 1.362-.449 2.045-.665l-.489-1.548c-.692.22-1.381.444-2.069.673l.513 1.54zm97.967 2.43l.589-1.513c-.675-.263-1.352-.521-2.032-.775l-.566 1.522c.673.25 1.342.505 2.01.765zm6.914 2.907l.667-1.48c-.658-.297-1.318-.59-1.98-.877l-.645 1.49c.655.283 1.308.573 1.958.867zm6.755 3.265l.744-1.442c-.642-.331-1.286-.658-1.933-.98l-.722 1.454c.64.318 1.277.64 1.911.968zm6.58 3.617l.818-1.402c-.624-.364-1.251-.724-1.88-1.08l-.797 1.414c.623.352 1.243.707 1.86 1.068zm6.387 3.957l.888-1.358c-.604-.396-1.212-.79-1.822-1.177l-.87 1.37c.604.385 1.206.773 1.804 1.165zm6.174 4.285l.958-1.31c-.584-.428-1.17-.852-1.76-1.271l-.939 1.323c.583.415 1.164.834 1.74 1.258zm5.946 4.601l1.024-1.258c-.56-.457-1.125-.91-1.693-1.36l-1.006 1.272c.562.445 1.12.893 1.675 1.346zm5.701 4.906l1.089-1.202c-.537-.487-1.078-.97-1.621-1.449l-1.07 1.22c.537.473 1.071.95 1.602 1.431zm5.442 5.198l1.15-1.145c-.512-.515-1.026-1.024-1.545-1.53l-1.132 1.16c.513.502 1.022 1.006 1.527 1.515zm5.167 5.473l1.208-1.084c-.485-.54-.972-1.076-1.464-1.61l-1.191 1.102c.486.527.969 1.058 1.447 1.592zm4.878 5.737l1.262-1.02a157.19 157.19 0 0 0-1.379-1.684l-1.246 1.038c.458.552.913 1.107 1.363 1.666zM227 78.354l1.312-.954a152.18 152.18 0 0 0-1.29-1.753l-1.298.972c.43.575.855 1.153 1.276 1.735zm4.26 6.215l1.36-.882c-.395-.61-.794-1.217-1.197-1.82l-1.348.903c.399.597.794 1.196 1.184 1.799zm3.93 6.432l1.406-.81c-.363-.63-.73-1.257-1.102-1.881l-1.393.832c.368.616.731 1.236 1.09 1.859zm3.592 6.631l1.445-.736c-.329-.648-.663-1.293-1.002-1.936l-1.434.758c.335.635.665 1.274.99 1.914zm3.24 6.813l1.483-.658c-.296-.665-.596-1.328-.9-1.988l-1.472.682c.301.652.598 1.307.89 1.964zm2.88 6.978l1.514-.58c-.26-.68-.524-1.358-.794-2.034l-1.506.604c.267.667.53 1.338.786 2.01zm2.51 7.123l1.543-.499c-.224-.694-.453-1.385-.687-2.074l-1.535.523c.23.681.457 1.364.679 2.05zm2.125 7.223l1.567-.417c-.187-.702-.378-1.402-.575-2.1l-1.56.442c.194.69.384 1.382.568 2.075zm1.743 7.324l1.587-.334c-.15-.71-.304-1.42-.464-2.126l-1.582.358c.158.7.312 1.4.46 2.102zm1.357 7.406l1.602-.251c-.112-.718-.23-1.433-.352-2.147l-1.598.275c.121.706.238 1.414.348 2.123zm.969 7.467l1.613-.167c-.075-.723-.155-1.444-.24-2.163l-1.61.192c.084.71.163 1.424.237 2.138zm.58 7.507l1.62-.083c-.038-.726-.08-1.45-.128-2.173l-1.619.108c.048.714.09 1.43.126 2.148zm.192 7.527H256c0-.727-.005-1.452-.016-2.175l-1.621.023c.01.716.015 1.434.015 2.152z"/>
    </g>
</svg>
