<svg xmlns="http://www.w3.org/2000/svg" width="38" height="35" viewBox="0 0 38 35">
    <g fill="none" fill-rule="evenodd">
        <path fill="#E2642C" d="M1 9.42L19.33 2 37 9.42V19l-36-.8z" opacity=".201"/>
        <path stroke="#2C2E30" stroke-width="2" d="M1 10l18-8 18 8"/>
        <path stroke="#2C2E30" stroke-linecap="square" stroke-width="2" d="M16 32.254c0-.906-.44-1.768-1.23-2.331C13.565 29.062 11.475 28 8.5 28c-2.975 0-5.065 1.062-6.27 1.923-.79.563-1.23 1.425-1.23 2.331V34h15v-1.746zM12 19.09C12 21.35 10.209 24 8 24s-4-2.65-4-4.91C4 16.833 5.791 15 8 15s4 1.832 4 4.09zM37 32.254c0-.906-.44-1.768-1.23-2.331C34.565 29.062 32.475 28 29.5 28c-2.975 0-5.065 1.062-6.27 1.923-.79.563-1.23 1.425-1.23 2.331V34h15v-1.746zM34 19.09c0 2.26-1.791 4.91-4 4.91s-4-2.65-4-4.91c0-2.258 1.791-4.09 4-4.09s4 1.832 4 4.09z"/>
    </g>
</svg>