<svg xmlns="http://www.w3.org/2000/svg" width="184" height="68" viewBox="0 0 184 68">
    <g fill="none" fill-rule="evenodd">
        <g fill-rule="nonzero">
            <path fill="#A08BA0" d="M0 25.5l32.742 20.838c.374.276.816.412 1.258.412.442 0 .884-.136 1.258-.412L68 25.5 35.275.425a2.13 2.13 0 0 0-2.55 0L0 25.5z"/>
            <path fill="#ECEFF1" d="M55.25 0h-42.5A4.257 4.257 0 0 0 8.5 4.25V51c0 1.173.952 2.125 2.125 2.125h46.75A2.126 2.126 0 0 0 59.5 51V4.25A4.254 4.254 0 0 0 55.25 0z"/>
            <g fill="#4D274E">
                <path d="M24.138 12.859h20.596c.812 0 1.471-.586 1.471-1.308 0-.722-.659-1.307-1.471-1.307H24.138c-.812 0-1.471.585-1.471 1.307s.659 1.308 1.47 1.308zM44.734 17.218H24.138c-.812 0-1.471.586-1.471 1.308 0 .721.659 1.307 1.47 1.307h20.597c.812 0 1.471-.586 1.471-1.307 0-.722-.659-1.308-1.471-1.308zM40.364 24.192H28.508c-.818 0-1.482.586-1.482 1.308 0 .722.664 1.308 1.482 1.308h11.856c.818 0 1.482-.586 1.482-1.308 0-.722-.664-1.308-1.482-1.308z"/>
            </g>
            <path fill="#DCAD28" d="M35.258 46.338A2.112 2.112 0 0 1 34 46.75c-.442 0-.884-.136-1.258-.412L0 25.5v38.25A4.252 4.252 0 0 0 4.25 68h59.5A4.252 4.252 0 0 0 68 63.75V25.5L35.258 46.338z"/>
            <path fill="#FFC82C" d="M63.75 68H4.25C1.866 68 0 66.134 0 63.75c0-.676.323-1.313.867-1.713l31.875-21.25A2.112 2.112 0 0 1 34 40.375c.442 0 .884.136 1.258.412l31.875 21.25c.544.4.867 1.037.867 1.713 0 2.384-1.866 4.25-4.25 4.25z"/>
        </g>
        <g fill-rule="nonzero">
            <path fill="#36C5F0" d="M149.117 6.037c-3.026 0-5.5 2.473-5.5 5.5s2.474 5.5 5.5 5.5h5.5v-5.5a5.49 5.49 0 0 0-5.5-5.5m0 14.654H134.5c-3.027 0-5.5 2.473-5.5 5.5s2.473 5.5 5.5 5.5h14.654c3.027 0 5.5-2.473 5.5-5.5-.037-3.027-2.473-5.5-5.537-5.5"/>
            <path fill="#2EB67D" d="M183.926 26.191c0-3.027-2.473-5.5-5.5-5.5s-5.5 2.473-5.5 5.5v5.5h5.5c3.027.037 5.5-2.436 5.5-5.5m-14.654 0V11.5c0-3.027-2.473-5.5-5.5-5.5s-5.5 2.473-5.5 5.5v14.691c0 3.027 2.473 5.5 5.5 5.5 3.064.037 5.5-2.436 5.5-5.5"/>
            <path fill="#ECB22E" d="M163.772 61.074c3.027 0 5.5-2.473 5.5-5.5s-2.473-5.5-5.5-5.5h-5.5v5.5c0 3.027 2.473 5.5 5.5 5.5m0-14.691h14.654c3.027 0 5.5-2.474 5.5-5.5 0-3.027-2.473-5.5-5.5-5.5h-14.654c-3.027 0-5.5 2.473-5.5 5.5 0 3.026 2.473 5.5 5.5 5.5"/>
            <path fill="#E01E5A" d="M129 40.883c0 3.026 2.473 5.5 5.5 5.5s5.5-2.474 5.5-5.5v-5.5h-5.5a5.49 5.49 0 0 0-5.5 5.5m14.654 0v14.69c0 3.028 2.474 5.5 5.5 5.5 3.027 0 5.5-2.472 5.5-5.5v-14.69c0-3.027-2.473-5.5-5.5-5.5a5.49 5.49 0 0 0-5.5 5.5"/>
        </g>
        <path fill="#4D274E" d="M111 39.498a2.842 2.842 0 0 1-2.834 2.834h-6.834v6.83a2.842 2.842 0 0 1-2.834 2.833 2.842 2.842 0 0 1-2.834-2.834v-6.83h-6.83A2.842 2.842 0 0 1 86 39.499a2.842 2.842 0 0 1 2.834-2.834h6.83v-6.83A2.842 2.842 0 0 1 98.498 27a2.842 2.842 0 0 1 2.834 2.834v6.83h6.83A2.845 2.845 0 0 1 111 39.497z" opacity=".103"/>
    </g>
</svg>
