<svg xmlns="http://www.w3.org/2000/svg" xmlns:xlink="http://www.w3.org/1999/xlink" width="493" height="478" viewBox="0 0 493 478">
    <defs>
        <path id="a" d="M33.881 25.544c9.303 29.613-12.687 180.794-12.687 180.794-8.389.23-15.592 0-15.592 0L.386 132.189c3.82-.293 9.604-2.798 12.116-14.574 2.592-12.167-4.444-72.004-6.178-114.84C12.25 2.237 18.336 1.446 24.39.33"/>
        <linearGradient id="b" x1="50.001%" x2="50.001%" y1="16.216%" y2="82.006%">
            <stop offset="0%" stop-color="#BDC3E6"/>
            <stop offset="100%" stop-color="#FFF"/>
        </linearGradient>
        <path id="d" d="M5.272.138L9.48 3.077l5.584 12.07c.94 2.217 1.218 4.262.223 5.053-3.398 2.706-14.99-3.207-14.97-5.344L5.272.138z"/>
        <linearGradient id="e" x1="49.423%" x2="53.135%" y1="98.669%" y2="-22.172%">
            <stop offset="0%" stop-color="#977EB8"/>
            <stop offset="100%" stop-color="#FFF"/>
        </linearGradient>
        <path id="g" d="M8.03.446L40.28 14.061C27.753 53.328 12.05 102.5 12.05 102.5c-5.151.273-12.04 0-12.04 0S1.639 53.947 8.029.446z"/>
        <linearGradient id="h" x1="40.598%" x2="47.719%" y1="95.765%" y2="37.818%">
            <stop offset="0%" stop-color="#BDC3E6"/>
            <stop offset="100%" stop-color="#FFF"/>
        </linearGradient>
        <path id="j" d="M11.834 5.082c.82.216 1.826.802 2.317.755-.678 1.38-1.779 2.248-3.273 2.333-2.938.166-4.416.07-6.657-.685A5.41 5.41 0 0 1 .764.739L.836.56c.176 1.046.541 2.812 1.397 3.592"/>
        <linearGradient id="k" x1=".629%" x2="85.286%" y1="35.526%" y2="68.267%">
            <stop offset="0%" stop-color="#977EB8"/>
            <stop offset="100%" stop-color="#FFF"/>
        </linearGradient>
        <path id="m" d="M2.036 1.097c.881-.138 1.793-.11 1.168.285C2.577 1.778 1.24 5.026.726 4.8.213 4.572-.13 3.895.149 2.682"/>
        <linearGradient id="n" x1="-8.483%" x2="85.57%" y1="-6.669%" y2="76.089%">
            <stop offset="0%" stop-color="gray"/>
            <stop offset="100%" stop-color="#FFF"/>
        </linearGradient>
        <path id="p" d="M2.298 1.023c.883-.144 1.664.697 1.037 1.095-.627.395-1.506 2.537-2.019 2.31-.51-.226-.853-.903-.577-2.117"/>
        <linearGradient id="q" x1="-13.991%" x2="88.299%" y1="-9.136%" y2="84.897%">
            <stop offset="0%" stop-color="gray"/>
            <stop offset="100%" stop-color="#FFF"/>
        </linearGradient>
        <path id="s" d="M58.458.547c27.348 14.795 55.187 38.92 47.894 65.385C92.542 116.038 15.92 86.467.478 39.782c11.717 12.814 34.047 29.23 47.62 34.278 16.407 6.1 36.917 1.694 39.311-21.356"/>
        <path id="t" d="M50.531.194c7.357 6.604 14.017 16.224 12.016 28.634C58.435 54.314 12.14 171.315 12.14 171.315H3.964S2.255 158.579.708 140.717c15.921-12.26 30.033-56.862 38.703-84.753"/>
        <path id="u" d="M12.111 3.499s4.47 6.244 13.988 11.023c8.628 4.33 24.81 6.433 24.81 6.433s.269 11.524-3.536 17.88c-.377.628-3.38-.217-3.38-.217s1.092 3.543.49 4.258c-2.047 2.446-4.746 4.97-8.304 7.405l-.418.28c-.513.338-2.746-1.186-2.746-1.186s.025 2.795-.563 3.08c-4.361 2.128-8.476 2.702-12.072 2.486a24.415 24.415 0 0 1-2.68-.308c-6.35-1.091-10.515-4.352-10.515-4.352S-1.557 11.16.662 6.405"/>
        <linearGradient id="v" x1="47.199%" x2="8.58%" y1="55.505%" y2="14.301%">
            <stop offset="0%" stop-color="#AAA"/>
            <stop offset="100%" stop-color="#FFF"/>
        </linearGradient>
        <path id="x" d="M39.075 92.986c2.344 52.409 78.451 122.611 78.451 122.611l-15.63 35.892c-34.614-7.38-58.24-29.235-74.34-54.505 5.792-.167 14.786-1.701 17.263-9.356 3.735-11.55-3.389-25.215-13.932-58.085C20.347 96.668 11.55 74.852 7.97 62.962 4.387 51.074-6.486 14.387 5.578 3.516 7.366 1.904 10.405.79 14.326.184 12.023 10.157 7.5 22.19 9.178 30.485c1.377 6.818 7.678 12.107 14.148 19.977"/>
        <linearGradient id="y" x1="52.245%" x2="46.459%" y1="12.967%" y2="99.071%">
            <stop offset="0%" stop-color="#AAA"/>
            <stop offset="100%" stop-color="#FFF"/>
        </linearGradient>
        <path id="A" d="M7.09 4.902c1.251-.036 3.421-.634 5.322-2.418-.89 1.986-2.646 3.532-4.913 3.934C4.108 7.019.832 5.066.331.783.323.711.323.642.32.573c.169.401.972 2.219 1.876 2.972"/>
        <linearGradient id="B" x1="50.928%" x2="40.392%" y1="37.884%" y2="81.323%">
            <stop offset="0%" stop-color="#977EB8"/>
            <stop offset="100%" stop-color="#FFF"/>
        </linearGradient>
        <path id="D" d="M49.349 40.18c6.19 19.783-18.798 33.424-47.565 19.534l-.98-15.029c5.896 1.745 22.538 6.003 32.748 1.903C44.73 42.098 23.688 15.597 6.742.66"/>
        <linearGradient id="E" x1="54.015%" x2="44.379%" y1="31.473%" y2="119.127%">
            <stop offset="0%" stop-color="#AAA"/>
            <stop offset="100%" stop-color="#FFF"/>
        </linearGradient>
        <path id="G" d="M6.49 62.923C16.84 12.993 39.207.153 39.207.153c-9.347 9.61-15.756 194.913-15.756 194.913H1.366"/>
        <linearGradient id="H" x1="51.085%" x2="48.431%" y1="9.897%" y2="103.068%">
            <stop offset="0%" stop-color="#AAA"/>
            <stop offset="100%" stop-color="#FFF"/>
        </linearGradient>
    </defs>
    <g fill="none" fill-rule="evenodd">
        <g fill="#401C41" fill-rule="nonzero" opacity=".344">
            <path d="M302.763 243.863c-4.966-.009-9.022-4.058-9.012-8.998.009-4.94 4.08-8.974 9.046-8.965l23.444-.03c3.123.005 5.682-2.532 5.688-5.637.006-3.106-2.545-5.653-5.667-5.659l-4.186-.05c-4.967-.01-9.022-4.06-9.013-8.998.01-4.94 4.08-8.975 9.046-8.966l77.741.045c3.123.006 5.683-2.53 5.689-5.637.005-3.107-2.544-5.653-5.667-5.658l-53.918-.005c-4.966-.009-9.022-4.059-9.013-8.998.01-4.94 4.08-8.974 9.047-8.965l99.617.105c4.966.01 9.022 4.059 9.013 8.999-.01 4.94-4.08 8.974-9.047 8.965l-1.29-.003c-3.123-.006-5.683 2.53-5.689 5.637-.005 3.106 2.544 5.652 5.667 5.658l26.842.041c4.966.01 9.022 4.06 9.013 9-.01 4.939-4.08 8.973-9.047 8.964l-108.578-.013c-3.123-.005-5.682 2.531-5.688 5.638-.006 3.106 2.544 5.652 5.667 5.658l42.666.076c4.967.009 9.022 4.058 9.013 8.998-.009 4.94-4.08 8.74-9.047 8.73l-102.337.068M262.455 212.16l-147.934.052c-3.58.007-6.514-2.902-6.521-6.462-.007-3.56 2.917-6.479 6.497-6.486l2.835-.005c5.693-.01 10.341-4.653 10.331-10.315-.01-5.662-4.677-10.288-10.37-10.277l-79.237.12c-5.694.011-10.343 4.653-10.333 10.315.01 5.663 4.677 10.288 10.37 10.278l10.375-.001c3.615.023 6.57 2.967 6.576 6.57.006 3.109-2.194 5.714-5.117 6.399l-39.594.025C4.64 212.383-.01 217.025 0 222.687c.011 5.663 4.678 10.38 10.371 10.37h52.09-.106l4.773.057c3.559.007 6.467 2.91 6.46 6.45-.007 3.542-2.925 6.434-6.485 6.427l-28.424.036c-5.66-.012-10.302 4.588-10.313 10.22-.01 5.63 4.614 10.248 10.276 10.258l68.829-.037c.472.065.95.11 1.441.11l133.764-.192c5.692-.01 10.342-4.652 10.33-10.314-.01-5.663-4.676-10.288-10.37-10.278l-11.812-.035c-3.58.007-6.514-2.901-6.52-6.462-.007-3.56 2.917-6.479 6.496-6.485l31.693-.06c5.693-.01 10.343-4.651 10.332-10.314-.01-5.662-4.677-10.287-10.37-10.277zm-190.765-6.3c-.006-3.219 2.343-5.916 5.42-6.483h8.006c3.58-.007 6.514 2.9 6.52 6.461.007 3.56-2.916 6.48-6.496 6.486l-7.95.006c-3.106-.534-5.494-3.234-5.5-6.47zm84.115 27.09c3.58-.006 6.514 2.902 6.52 6.463.008 3.56-2.916 6.479-6.496 6.486l-13.152.024c-2.8-.712-4.886-3.245-4.88-6.244.006-3.541 2.677-6.734 6.238-6.727l11.77-.001zM267.53 151.938l-26.879.092c-2.507-.143-4.522-2.205-4.527-4.734-.004-2.624 2.15-4.775 4.788-4.78l7.04-.004c4.195-.008 7.621-3.428 7.613-7.6-.008-4.173-3.446-7.58-7.642-7.573l-54.487-.026c-2.638.005-4.8-2.138-4.805-4.762-.004-2.623 2.15-4.661 4.787-4.667h9.528c4.127 0 7.502-3.31 7.502-7.414 0-4.8-3.375-7.998-7.502-7.998h-25.37c-2.594 0-4.716-2.112-4.716-4.693 0-2.58 2.122-4.691 4.717-4.691h4.302c4.127 0 7.502-3.358 7.502-7.462 0-4.104-3.375-7.462-7.502-7.462h-32.005a7.558 7.558 0 0 0-2.066-.288l-50.555.088c-4.194.008-7.62 3.428-7.612 7.6.006 4.174 3.446 7.581 7.64 7.573l1.091-.002c2.637-.004 4.8 2.138 4.805 4.762.003 2.21-1.532 4.07-3.591 4.607-.336.028-.664.08-.985.15l-.212.022-41.818.035c-4.195.008-7.62 3.428-7.613 7.602.008 4.172 3.447 7.58 7.643 7.571h98.335c2.638-.004 4.8 2.128 4.805 4.752.005 2.624-2.15 4.775-4.786 4.78l-8.715.064c-4.196.008-7.622 3.428-7.614 7.601.008 4.172 3.447 7.58 7.642 7.572l47.43-.198c.485.096.984.147 1.495.146l1.09-.001c2.637-.006 4.8 2.137 4.805 4.76.005 2.624-2.15 4.775-4.787 4.78l-20.174.101c-4.195.008-7.621 3.43-7.613 7.602.008 4.173 3.446 7.58 7.64 7.573l91.404-.277c4.195-.008 7.621-3.428 7.613-7.601-.008-4.172-3.446-7.608-7.642-7.6zM124.497 93.052l24.67.036c2.593 0 4.716 2.112 4.716 4.691 0 2.581-2.123 4.693-4.717 4.693h-25.7c-2.137-.476-3.752-2.374-3.756-4.64-.005-2.623 2.149-4.774 4.787-4.78zM439.503 62.021c4.927 0 8.952 4.004 8.976 8.904 0 4.9-4.025 8.927-8.952 8.927H432.7c-3.098 0-5.633 2.548-5.633 5.629 0 2.96 2.364 5.386 5.316 5.556l51.535-.122c4.927 0 8.976 4.028 8.976 8.928.024 4.9-4 8.928-8.927 8.928l-207.427.339c-4.928 0-8.951-4.002-8.976-8.904 0-4.9 4.024-8.927 8.95-8.927l58.55-.121c3.096 0 5.633-2.523 5.633-5.604s-2.56-5.604-5.657-5.604l-21.766.008c-4.927 0-8.952-4.003-8.977-8.904 0-4.9 4.025-8.927 8.952-8.927l126.254-.106M213.112 24.397c2.387.005 4.344-1.934 4.348-4.309.004-2.374-1.945-4.32-4.333-4.325l-17.235-.032c-3.797-.006-6.898-3.102-6.89-6.878.007-3.776 3.119-6.86 6.915-6.853l102.302.19c3.798.007 6.898 3.102 6.891 6.878-.008 3.777-3.12 6.86-6.916 6.854l-44.68-.083c-2.386-.006-4.343 1.934-4.347 4.308-.005 2.375 1.945 4.32 4.332 4.325l1.89.003c3.796.008 6.897 3.103 6.89 6.879-.008 3.777-3.12 6.86-6.915 6.852l-43.265-.08c-3.796-.007-6.896-3.102-6.89-6.877.008-3.776 3.12-6.861 6.917-6.853l.986.001"/>
        </g>
        <path fill="#2D2D2D" d="M374.15 365.621l-78.85-2.963 30.808-101.086z"/>
        <path fill="#EA5724" d="M335.93 141.868s-7.162 1.703-9.822 2.886c-2.662 1.189.82 10.51.82 10.51s10.975-6.117 9.002-13.396"/>
        <path fill="#298696" d="M334.27 118.26s4.784-.85 6.836-.34c2.052.51 4.274-2.315 6.267-1.41 1.996.9 1.369 4.008-.513 5.028-1.879 1.014-.744 11.204-6.211 12.833-5.467 1.628-10.652-12.551-6.379-16.112"/>
        <path fill="#FFC82C" d="M327.662 127.468s-2.905-4.238-2.052-7.57c.856-3.333 5.478-6.327 7.725-5.987 2.244.337 1.151 2.079 1.39 3.162 1.303 5.886 7.235 9.054 7.294 13.62.055 4.57-5.927 6.041-7.806 4.852-1.879-1.183-6.551-8.077-6.551-8.077"/>
        <path fill="#EA5724" d="M317.505 456.064v-4.83l-13.311.882 1.271 3.948zM395.81 456.064s3.741 2.184 4.636 4.312c.892 2.129-2.774 3.459-8.316 1.684-5.545-1.772-8.36-5.996-8.36-5.996h12.04z"/>
        <path fill="#2D2D2D" d="M383.768 456.064s-11.41 12.783-6.16 15.146c5.249 2.364 36.204 3.47 40.971 1.344 4.77-2.132-22.77-16.49-22.77-16.49s3.259 3.74 2.386 4.74c-2.49 2.848-14.427-4.74-14.427-4.74"/>
        <path fill="#EFEFEF" d="M415.71 468.013c-6.715-.49-14.775 4.415-25.622 3.107-7.912-.954-11.876-2.295-13.75-3.176-.297 1.484-.016 2.687 1.27 3.264 5.249 2.367 36.204 3.473 40.971 1.347 1.442-.644-.067-2.405-2.868-4.542"/>
        <path fill="#EA5724" d="M305.465 456.064s-5.246 3.677-6.44 7.34c-1.19 3.665 8.824 2.604 12.757-.592 3.937-3.19 5.724-6.748 5.724-6.748h-12.04z"/>
        <path fill="#2D2D2D" d="M317.505 456.064s11.414 12.783 6.161 15.146c-5.246 2.364-36.202 3.47-40.972 1.344-4.77-2.132 22.771-16.49 22.771-16.49s-3.259 3.74-2.384 4.74c2.487 2.848 14.424-4.74 14.424-4.74"/>
        <path fill="#EFEFEF" d="M285.564 468.013c6.716-.49 14.773 4.415 25.623 3.107 7.912-.954 11.876-2.295 13.75-3.176.298 1.484.016 2.687-1.27 3.264-5.249 2.367-36.204 3.473-40.971 1.347-1.441-.644.067-2.405 2.868-4.542"/>
        <path fill="#298696" d="M300.534 248.334c27.677 5.111 55.964 3.353 66.915 2.355.688 2.585 1.46 5.289 2.353 8.153 21.67 69.62 25.915 196.145 25.915 196.145s-6.889.276-12.04 0c0 0-33.058-103.508-41.51-130.105-4.034-12.689-7.734-17.184-11.53-31.393l-11.314 160.856s-7.2.23-15.592 0c0 0-21.987-151.183-12.684-180.796 2.618-8.335 6.094-17.046 9.487-25.215"/>
        <path fill="#2D2D2D" d="M292.73 268.479c2.208-6.873 3.624-9.96 6.415-16.778 7.825.725 15.165 1.714 16.068 2.134 1.737.805 16.908 20.764 16.908 20.764s-15.834 5.861-39.391-6.12"/>
        <g transform="matrix(-1 0 0 1 324.926 248.006)">
            <mask id="c" fill="#fff">
                <use xlink:href="#a"/>
            </mask>
            <path fill="url(#b)" d="M33.881 25.544c-2.618-8.335-6.094-17.046-9.49-25.215-6.055 1.117-12.14 1.907-18.067 2.447 1.734 42.835 8.77 102.672 6.178 114.839C9.99 129.39 4.205 131.895.386 132.189l5.216 74.149s7.203.23 15.592 0c0 0 21.99-151.181 12.687-180.794" mask="url(#c)"/>
        </g>
        <path fill="#FFF" d="M295.699 260.362c-.112-18.093-10.466-64.528-10.466-64.528s-13.788-32.662-10.309-39.894c22.2-8.479 78.515-23.13 105.685 9.112 6.582 7.812-12.266 27.147-14.773 41.638 0 0-3.105 23.374 5.807 56.876-12.288 7.666-46.81 21.956-75.944-3.204"/>
        <path fill="#C5EFFF" d="M333.743 142.271s-45.203 4.506-60.397 13.92c0 0 15.916 74.663 13.354 96.19-2.565 21.524.683 128.44.683 128.44s3.588 8.741 15.383 10.743c0 0 10.92-212.293 11.513-220.064.753-9.83 19.456-24.88 19.456-24.88l.008-4.349z"/>
        <path fill="#FF6687" d="M340.275 132.037l4.956 14.718c.02 2.137-11.575 8.047-14.97 5.344-.995-.791-.716-2.837.223-5.054l5.584-12.072 4.207-2.936z"/>
        <g transform="matrix(-1 0 0 1 345.547 131.898)">
            <mask id="f" fill="#fff">
                <use xlink:href="#d"/>
            </mask>
            <path fill="url(#e)" d="M5.272.138L.316 14.856c-.02 2.137 11.572 8.05 14.97 5.344.995-.79.716-2.836-.223-5.053L9.479 3.077 5.272.138z" mask="url(#f)"/>
        </g>
        <path fill="#2D2D2D" d="M334.945 137.4c2.375-.415 5.615-1.023 5.615-1.023s-.212 3.749-3.524 6.566a9.865 9.865 0 0 1-5.737 2.338l3.646-7.881z"/>
        <g transform="matrix(-1 0 0 1 395.727 352.488)">
            <mask id="i" fill="#fff">
                <use xlink:href="#g"/>
            </mask>
            <path fill="url(#h)" d="M8.03.446C1.64 53.947.008 102.5.008 102.5s6.889.273 12.04 0c0 0 15.704-49.172 28.232-88.439L8.03.446z" mask="url(#i)"/>
        </g>
        <path fill="#2D2D2D" d="M383.677 382.77s-9.007 10.215-18.21 15.18c-1.062-3.32-2.132-6.676-3.206-10.038l21.416-5.142z"/>
        <path fill="#FF6687" d="M336.99 126.577l3.323 8.257a5.412 5.412 0 0 1-3.454 6.745c-2.244.755-3.72.852-6.66.686-2.45-.14-3.845-2.375-4.048-5.534-.26-4.1.675-7.948 1.288-9.983 1.405-4.63 6.989-5.399 9.55-.171"/>
        <path fill="#FF6687" d="M337.157 130.773c.084-.544.081-1.094.048-1.644-.067-1.048.08-2.616 1.692-1.95 2.344.968 2.386 6.558-.19 7.144-1.915.434-1.759-2.176-1.55-3.55"/>
        <path fill="#FFF" d="M331.843 133.057s-1.979.62-4.842.451c0 0 .014.965 1.18 1.532 1.162.566 3.133.254 3.662-1.983"/>
        <g transform="matrix(-1 0 0 1 341.077 134.094)">
            <mask id="l" fill="#fff">
                <use xlink:href="#j"/>
            </mask>
            <path fill="url(#k)" d="M11.834 5.082C9.15 4.37 6.822 8.325 2.233 4.151 1.377 3.37 1.012 1.605.836.56L.764.74A5.41 5.41 0 0 0 4.22 7.484c2.241.755 3.719.851 6.657.685 1.494-.085 2.595-.953 3.273-2.333-.49.047-1.497-.539-2.317-.755" mask="url(#l)"/>
        </g>
        <path fill="#3F63D8" d="M314.28 171.5l6.492-1.131a1.61 1.61 0 0 1 1.87 1.302l2.549 14.358a1.61 1.61 0 0 1-1.313 1.858l-6.493 1.13a1.614 1.614 0 0 1-1.87-1.301l-2.546-14.362c-.156-.87.432-1.7 1.31-1.855"/>
        <path fill="#EA5724" d="M395.81 456.064l-.092-1.078h-12.04l.091 1.078z"/>
        <path fill="#C5EFFF" d="M343.585 141.868s-4.742 18.82-7.655 30.514c-2.913 11.694 5.974 194.06 8.879 218.977 0 0 30.596 3.39 57.941-17.458l-23.437-210.913s-12.514-17.587-35.728-21.12"/>
        <path fill="#FF6687" d="M315.64 190.197s3.513-4.83 4.464-7.132c2.774-6.718-5.448-.18-5.448-.18l-.348-1.962s-2.044 2.551-4.555 5.697l5.887 3.577z"/>
        <path fill="#C5EFFF" d="M282.96 151.938c-30.445 9.767-85.45 41.425-75.537 77.4 15.04 54.573 104.6 14.635 108.467-38.99l-6.139-3.73s-48.112 36.273-48.112 25.762c0-3.754 29.526-10.372 32.751-22.915 4.146-16.133-3.74-39.993-11.43-37.527M379.313 162.987s17.432 16.424 30.284 51.176c12.851 34.752 0 130.517 0 130.517h-8.177s-46.296-117.001-50.406-142.487c-4.109-25.486 28.3-39.206 28.3-39.206"/>
        <path fill="#FF6687" d="M409.596 344.68s2.403 12.291-.973 18.727c-3.125 5.96-3.958-1.416-4.544-6.82-.582-5.405-1.405-7.702-1.75-4.957-.39 3.09.451 6.392-.52 6.37-3.116-.061-3.116-7.722-.39-13.32 2.727-5.598 8.177 0 8.177 0"/>
        <path fill="#298696" d="M415.217 255.356c.922 40.56-5.62 89.325-5.62 89.325h-8.177s-17.162-43.372-31.513-83.053c21.942 6.347 37.153-.47 45.31-6.272M262.532 214.05c6.563 3.218 47.22-27.431 47.22-27.431l6.136 3.729c-2.253 31.255-33.618 57.855-62.374 63.804-4.067-18.848 4.042-33.348 9.018-40.102"/>
        <path fill="#2D2D2D" d="M328.786 129.098a1.98 1.98 0 0 0-1.807-2.035c-1.541-.127-3.615-.038-4.365 1.206-1.246 2.076.3 4.464 3.34 4.556 2.355.072 2.765-1.72 2.832-3.727M330.057 129.098a1.98 1.98 0 0 1 1.807-2.035c1.541-.127 3.618-.038 4.365 1.206 1.246 2.076-.3 4.464-3.34 4.556-2.352.072-2.765-1.72-2.832-3.727"/>
        <g transform="matrix(-1 0 0 1 336.077 126.369)">
            <mask id="o" fill="#fff">
                <use xlink:href="#m"/>
            </mask>
            <path fill="url(#n)" d="M2.036 1.097S.425 1.465.15 2.682c-.279 1.213.064 1.89.577 2.117.513.227 1.851-3.021 2.478-3.417.625-.395-.287-.423-1.168-.285" mask="url(#o)"/>
        </g>
        <g transform="matrix(-1 0 0 1 328.82 126.369)">
            <mask id="r" fill="#fff">
                <use xlink:href="#p"/>
            </mask>
            <path fill="url(#q)" d="M2.298 1.023S1.018 1.095.739 2.31c-.276 1.214.067 1.891.577 2.118.513.226 1.392-1.916 2.019-2.311.627-.398-.154-1.239-1.037-1.095" mask="url(#r)"/>
        </g>
        <path fill="#2D2D2D" d="M330.48 129.013l.311-.602c-.06-.03-1.524-.769-2.595.027l.413.545c.724-.542 1.86.025 1.87.03M352.124 189.042s8.068 51.552 17.78 72.587c0 0-12.24-16.7-17.565-47.781-2.055-11.976-.215-24.806-.215-24.806"/>
        <g>
            <path fill="#EAAC21" d="M35.229 187.018s9.74-5.471 21.746-7.663c12.003-2.188 12.967 1.333 12.967 1.333s-25.652 17.766-34.713 6.33"/>
            <path fill="#FF6687" d="M92.137 152.256c1.46-1.858.122-4.98.122-4.98s-2.114 2.817-2.757 2.34c-.649-.473-.582-3.476-.036-5.377.923-3.197-1.724-1.945-3.414.006-1.696 1.95-2.79 8.762-1.247 10.801 1.538 2.04 6.104-1.224 7.332-2.79"/>
            <path fill="#FF6687" d="M125.755 151.5s-15.16-1.799-28.576 7.914c-13.422 9.713-22.596 30.603-30.24 31.282-6.961.62 21.576-36.424 21.576-36.424l-4.079-2.906s-20.895 10.799-34.317 27.952c-11.352 14.511-4.417 39.01 16.478 39.12 20.895.114 44.17-33.535 44.17-33.535l14.988-33.404z"/>
            <path fill="#3F63D8" d="M92.713 136.69l-5.564-.978a1.385 1.385 0 0 0-1.604 1.125l-2.18 12.408a1.385 1.385 0 0 0 1.122 1.604l5.566.978a1.386 1.386 0 0 0 1.605-1.122l2.18-12.411a1.385 1.385 0 0 0-1.125-1.604"/>
            <path fill="#FF6687" d="M92.445 147.793s-.449-2.103-.593-2.926c-.14-.82-1.612.906-1.216 2.095.396 1.188-.141 4.676-1.868 4.886-1.726.21-.169 1.654-.169 1.654s2.802-.964 3.143-1.897c.338-.934.703-3.812.703-3.812"/>
            <path fill="#FFC82C" d="M97.178 159.414c-13.422 9.712-22.594 30.603-30.238 31.282-1.832.163-1.211-2.275.703-5.96.638-1.226 2.3-4.05 2.3-4.05s-5.746 3.56-18.407 5.048c-7.894.928-15.713 1.316-16.306 1.283-1.372 1.493-.454 31.423 31.369 31.42 20.895 0 44.167-33.534 44.167-33.534l14.988-33.404s-15.157-1.798-28.576 7.915"/>
            <path fill="#298696" d="M140.156 140.123s4.466 6.244 13.987 11.023c8.626 4.33 24.81 6.432 24.81 6.432s.27 11.522-3.535 17.877c-.377.63-3.38-.213-3.38-.213s1.088 3.543.49 4.258c-2.05 2.446-4.747 4.97-8.305 7.405-.14.094-.28.188-.42.28-.51.338-2.744-1.186-2.744-1.186s.025 2.795-.562 3.08c-4.362 2.125-8.48 2.699-12.076 2.486a24.285 24.285 0 0 1-2.676-.308c-6.351-1.094-10.516-4.352-10.516-4.352s-8.745-39.122-6.525-43.876c2.222-4.757 4.145-9.716 11.452-2.906"/>
            <g transform="translate(128.043 136.624)">
                <mask id="w" fill="#fff">
                    <use xlink:href="#u"/>
                </mask>
                <path fill="url(#v)" d="M12.111 3.499s4.47 6.244 13.988 11.023c8.628 4.33 24.81 6.433 24.81 6.433s.269 11.524-3.536 17.88c-.377.628-3.38-.217-3.38-.217s1.092 3.543.49 4.258c-2.047 2.446-4.746 4.97-8.304 7.405l-.418.28c-.513.338-2.746-1.186-2.746-1.186s.025 2.795-.563 3.08c-4.361 2.128-8.476 2.702-12.072 2.486a24.415 24.415 0 0 1-2.68-.308c-6.35-1.091-10.515-4.352-10.515-4.352S-1.557 11.16.662 6.405c2.22-4.757 4.145-9.716 11.45-2.906" mask="url(#w)"/>
            </g>
            <path fill="#2D2D2D" d="M107.122 189.74l-8.725-23.652s-8.587 3.549-14.331 22.232c-3.835 12.466-2.873 20.766-1.812 24.913 10.49-6.419 19.922-17.245 24.868-23.492"/>
            <path fill="#CDD4D4" d="M168.219 265.05c-.654-15.63-5.583-30.504-15.752-42.524-6.47-7.87-12.768-13.162-14.145-19.98-2.94-14.521 13.147-40.518 3-46.818-9.107-5.656-18.088-8.158-26.683 5.034-12.602 19.345-17.855 29.332-34.758 87.999C63.64 305.153 66.94 458.55 66.94 458.55h40.224s6.406-185.306 15.753-194.914c0 .003 9.368 138.857 108.124 159.914l15.627-35.892s-76.104-70.203-78.448-122.609"/>
            <g transform="translate(129.143 172.063)">
                <mask id="z" fill="#fff">
                    <use xlink:href="#x"/>
                </mask>
                <path fill="url(#y)" d="M39.075 92.986c-.654-15.627-5.58-30.5-15.75-42.524-6.47-7.87-12.77-13.159-14.147-19.977C7.5 22.191 12.023 10.157 14.326.184c-3.92.606-6.96 1.72-8.748 3.332C-6.486 14.387 4.387 51.074 7.97 62.962c3.58 11.89 12.377 33.706 22.917 66.581 10.543 32.87 17.667 46.536 13.932 58.085-2.477 7.655-11.471 9.19-17.262 9.356 16.098 25.27 39.725 47.125 74.339 54.505l15.63-35.892s-76.107-70.202-78.45-122.61" mask="url(#z)"/>
            </g>
            <path fill="#FF6687" d="M97.286 458.551s1.114 5.436.69 6.286c-.172.338-4.212 1.654-7.393 3.288-1.421 1.242-2.81 2.837-1.271 3.333 2.632.85 18.085.859 19.537-1.698a6.794 6.794 0 0 1 1.787-2.061c-2.062-3.042-3.223-6.394-3.475-9.148h-9.875z"/>
            <path fill="#3F63D8" d="M108.849 469.76c-1.45 2.557-16.905 2.548-19.538 1.698-1.535-.493-.147-2.092 1.272-3.333-4.771 2.45-10.662 5.61-10.87 7.239-.338 2.718 27.778 2.635 32.447 0 2.444-1.377.737-4.333-1.522-7.665a6.764 6.764 0 0 0-1.79 2.06"/>
            <path fill="#FF6687" d="M242.475 397.288s4.38 1.285 6.001 4.075c.707 1.216.477 3.565.197 6.823.44 1.837 1.208 3.807 2.36 2.674 1.98-1.934 9.17-15.606 7.582-18.08a6.893 6.893 0 0 1-.995-2.54c-3.652.41-8.396-1.523-10.95-2.582l-4.195 9.63z"/>
            <path fill="#3F63D8" d="M258.615 392.78c1.588 2.475-5.602 16.146-7.58 18.08-1.153 1.133-1.924-.837-2.362-2.673-.05 5.363.006 12.048 1.355 12.987 2.25 1.562 15.248-23.362 15.09-28.717-.083-2.804-3.496-2.668-7.497-2.217.146.851.462 1.71.994 2.54"/>
            <path fill="#FFC82C" d="M144.853 206.988c-.324-.62-2.155-10.935-1.357-21.287 1.016-13.148 4.297-27.196-1.38-30.723-9.108-5.654-32.27-6.516-40.862 6.676-8.399 12.89-14.162 21.91-13.3 43.311 8.099 2.125 35.899 4.727 56.9 2.023"/>
            <path fill="#FFEC7B" d="M144.326 177.452c-18.848 1.939-40.76-3.895-48.945-6.37-1.945 3.436-3.59 6.901-4.84 10.769 18.019 14.502 43.494 12.275 52.773 10.848-.047-2.255 0-4.623.183-6.997.21-2.746.524-5.53.829-8.25"/>
            <path fill="#3F63D8" d="M133.061 191.4l-4.522-.199c.11 3.161.892 6.023 2.618 8.242 4.426 5.69 13.362 6.125 13.362 6.125l-.455-7.82s-9.612-.375-11.003-6.347"/>
            <path fill="#FF6687" d="M136.37 153.034s55.744 16.063 65.96 48.702c7.814 24.97-35.081 21.232-70.97-6.454l3.19-5.433s35.054 6.624 37.204 5.095c.97-.693-5.935-3.918-13.79-7.245-12.489-5.286-20.84-17.262-21.425-30.808l-.169-3.857z"/>
            <path fill="#FFC82C" d="M202.33 201.736c-10.217-32.64-65.96-48.702-65.96-48.702l.565 13.046a20.673 20.673 0 0 0 12.91 18.267c10.329 4.175 23.21 9.669 21.908 10.597-1.05.748-9.98-.458-18.828-1.881l1.84 28.207c28.767 13.89 53.755.25 47.565-19.534"/>
            <path fill="#FF6687" d="M136.93 142.026l.147 12.112c.017 1.994-4.896 7.114-8.043 4.59-.92-.737.29-3.48 1.16-5.549l2.375-10.402 4.362-.751z"/>
            <path fill="#2D2D2D" d="M131.159 148.957c2.599-.798 5.212-4.695 5.212-4.695h-4.14l-1.072 4.695z"/>
            <path fill="#FF6687" d="M136.928 134.267l.729 4.649c.576 3.687-1.785 7.341-5.456 7.992-3.395.604-6.667-1.349-7.168-5.635-.447-3.809 2.258-7.094 3.239-8.818 2.23-3.925 7.428-3.47 8.656 1.812"/>
            <path fill="#FF6687" d="M137.35 139.292c.255-.327.454-.69.632-1.06.338-.713 1.005-1.688 1.812-.668 1.172 1.484-.84 5.166-2.732 4.618-1.402-.408-.347-2.064.288-2.89"/>
            <path fill="#FFF" d="M129.592 139.988s-1.701-.233-3.838-1.469c0 0 .471 2.546 3.838 1.469"/>
            <g transform="translate(124.7 140.492)">
                <mask id="C" fill="#fff">
                    <use xlink:href="#A"/>
                </mask>
                <path fill="url(#B)" d="M7.09 4.902c-1.397.045-3.875-.506-4.894-1.357C1.292 2.792.489.975.32.573.323.642.323.71.33.783.832 5.066 4.108 7.02 7.499 6.418c2.267-.402 4.023-1.948 4.913-3.934-1.9 1.784-4.07 2.382-5.323 2.418" mask="url(#C)"/>
            </g>
            <path fill="#3F63D8" d="M131.424 126.239s1.74-1.615 5.39-1.108c3.654.51 4.253-1.892 6.286-1.061 2.034.83.463 2.753.416 4.078-.044 1.327 2.973 5.066-.166 8.31-1.823 1.884-16.5-4.764-11.926-10.22"/>
            <path fill="#2D2D2D" d="M139.533 131.427c-3.164-1.804-5.799-3.616-7.888-5.358-.144.102-.222.169-.222.169-4.574 5.454 10.103 12.103 11.926 10.22.85-.879 1.239-1.793 1.369-2.685-1.247-.258-3.943-1.637-5.185-2.346"/>
            <path fill="#3F63D8" d="M127.709 131.738c1.745 1.64 7.786 7.191 11.956 9.352.66.344 1.463.197 1.981-.332a10.926 10.926 0 0 0 2.375-3.746c.293-.773.025-1.648-.674-2.091-2.66-1.68-9.354-6.01-11.679-8.483a1.299 1.299 0 0 0-1.82-.086c-.923.828-2.142 2.247-2.527 4.172-.086.443.058.903.388 1.214M150.273 358.076c8.618-11.317 15.232-42.757 15.232-42.757s-14.722 2.718-26.728 13.589c-.355.32-.693.656-1.022.997a228.185 228.185 0 0 0 4.164 10.643c5.902-7.923 11.807-12.544 11.807-12.544l-9.041 18.839a192.418 192.418 0 0 0 5.588 11.233M93.024 231.206l-12.43 15.09c-.235.812-.47 1.632-.712 2.463-1.177 4.086-2.25 8.682-3.23 13.69a228.6 228.6 0 0 0 1.806-.545c11.363-3.5 29.036-40.195 29.036-40.195s-9.474-.554-20.532 3.095a1273.132 1273.132 0 0 0-3.638 12.14c5.489-3.843 9.7-5.738 9.7-5.738M93.901 272.91s-5.564 13.896-2.779 29.847c2.322 13.32 17.86 21.356 22.934 23.65.025-.313.05-.626.072-.936-13.693-15.062-15.79-35.834-15.79-35.834l16.539 26.368a955.296 955.296 0 0 1 1.568-17.187C107.913 286.509 93.9 272.91 93.9 272.91M84.81 398.922s1.157-1.413 1.432-13.292c.158-7.028-10.003-19.824-18.335-29.105-.188 4.937-.352 9.84-.488 14.675l17.39 27.722zM79.043 399.566c-5.5-5.527-9.29-12.007-11.89-18.01-.086 3.798-.158 7.533-.219 11.184 6.105 4.51 12.109 6.826 12.109 6.826M108.51 424.815c-11.643-4.095-26.345-2.388-26.345-2.388s3.591 10.896 13.092 18.885c3.525 2.964 8.074 4.025 12.394 4.194.072-1.764.147-3.679.23-5.737-8.997-4.014-14.863-9.713-14.863-9.713l14.996 6.452c.147-3.57.316-7.49.496-11.693M214.918 354.007c-10.55-3.133-17.75-7.909-17.75-7.909l12.51 1.59a351.179 351.179 0 0 1-7.886-10.09c-10.842.236-20.38 1.325-20.38 1.325s7.227 13.11 21.328 21.071c5.938 3.35 12.967 3.247 19.119 2.008a430.611 430.611 0 0 1-6.941-7.995M152.584 296.6s4.586.686 8.59-8.952c4.004-9.64-10.895-42.161-10.895-42.161s-8.978 9.605-11.776 23.548c-2.802 13.943 12.344 27.73 12.344 27.73-7.523-17.195-2.261-36.174-2.261-36.174l3.998 36.008zM132.89 190.029c-.127-7.294 12.472-33.93 12.472-33.93-.906-.685-4.356-1.749-4.356-1.749s-5.522 12.57-9.033 21.063c-2.141 5.175-3.61 10.854-3.433 15.788l4.522.2a6.337 6.337 0 0 1-.171-1.372"/>
            <path fill="#FF6687" d="M136.757 192.905s-1.23-5.095-2.992-6.114c-1.765-1.02-6.68-4.981-6.575 2.152.036 2.471.992 3.962 4.173 6.339l5.394-2.377z"/>
            <path fill="#2D2D2D" d="M131.064 127.218s-2.66 2.089-2.538 4.208l2.538-4.208zM134.72 130.105s-2.51.809-3.359 3.95l3.359-3.95zM138.132 132.368s-.762 3.568-2.843 4.756l2.843-4.756zM142.618 135.498s-.762 3.568-2.843 4.757l2.843-4.757z"/>
            <g transform="translate(152.981 161.556)">
                <mask id="F" fill="#fff">
                    <use xlink:href="#D"/>
                </mask>
                <path fill="url(#E)" d="M49.349 40.18C43.583 21.753 23.306 8.614 6.74.66 23.688 15.596 44.73 42.097 33.552 46.587 23.342 50.688 6.7 46.43.804 44.685l.98 15.029c28.767 13.89 53.755.25 47.565-19.533" mask="url(#F)"/>
            </g>
            <g transform="translate(83.71 263.483)">
                <mask id="I" fill="#fff">
                    <use xlink:href="#G"/>
                </mask>
                <path fill="url(#H)" d="M6.49 62.923C-.624 97.247.171 159.504 1.365 195.066h22.086S29.862 9.763 39.208.153c0 0-22.367 12.84-32.719 62.77" mask="url(#I)"/>
            </g>
            <path fill="#3F63D8" d="M204.15 33.856l-94.623-6.093c-10.958-.705-20.398 7.585-21.039 18.482l-1.09 18.405c-.59 9.973 6.43 18.802 16.33 20.535l4.443.776s-5.433 14.116-7.88 18.518c-2.353 4.23-8.263 13.447-8.263 13.447s20.33-6.105 31.797-26.717l69.523 16.554c11.369 2.708 22.612-4.92 24.222-16.43l4.908-35.136c1.585-11.323-6.845-21.6-18.327-22.341"/>
            <path fill="#FFF" fill-rule="nonzero" d="M178.303 44.749h-28.19a5.195 5.195 0 0 0-5.2 5.19v28.136a5.195 5.195 0 0 0 5.2 5.19h13.903l.024-13.763h-3.583a.844.844 0 0 1-.845-.84l-.017-4.437a.845.845 0 0 1 .845-.847h3.576V59.09c0-4.975 3.044-7.684 7.49-7.684h3.65c.466 0 .845.378.845.844v3.74a.845.845 0 0 1-.845.844l-2.24.001c-2.417 0-2.886 1.147-2.886 2.83v3.712h5.314c.506 0 .899.441.84.943l-.528 4.437a.845.845 0 0 1-.84.744h-4.762l-.024 13.764h8.273c2.872 0 5.2-2.324 5.2-5.19V49.939a5.195 5.195 0 0 0-5.2-5.19z"/>
        </g>
        <g>
            <path fill="#22AAE1" d="M252.963 9.02c15.153-3.144 30.672-5.103 46.054-6.737 9.229-.98 18.635-2.133 27.92-2.273 4.118-.062 8.43.1 12.127 2.15 4.61 2.557 7.004 6.57 8.118 11.125.071.071.123.151.129.245.011.151.022.3.031.45.63 2.924.765 6.042.644 9.132.84 11.125 1.856 22.241 2.517 33.384.59 9.852-.083 18.91-10.491 22.75-12.61 4.654-28.425 3.976-41.682 4.853-4.264.279-8.86.792-13.552 1.233 2.517 7.213 5.036 14.428 7.556 21.64a227.627 227.627 0 0 0-19.096-20.863c-5.122.137-10.139-.1-14.74-1.105-8.08-1.762-11.588-8.163-13.36-15.723-3.38-14.417-5.733-30.443-6.017-45.247-.183-9.613 4.922-13.163 13.842-15.014"/>
            <path fill="#FFF" fill-rule="nonzero" d="M318.26 31.745a10.284 10.284 0 0 0 2.652-4.31c.147-.471-.354-.879-.77-.626a18.38 18.38 0 0 1-4.925 2.076c-.1.026-.204.04-.308.04a1.29 1.29 0 0 1-.862-.337 9.954 9.954 0 0 0-6.665-2.567c-1.063 0-2.137.17-3.19.503-3.267 1.034-5.787 3.784-6.577 7.177a11.19 11.19 0 0 0-.24 3.786.373.373 0 0 1-.09.288.37.37 0 0 1-.314.127c-7.148-.678-13.595-4.194-18.152-9.9a.52.52 0 0 0-.863.07 10.437 10.437 0 0 0-1.364 5.168c0 2.787 1.097 5.414 3.003 7.33a8.916 8.916 0 0 1-2.298-.909.527.527 0 0 0-.782.464c-.05 4.14 2.325 7.825 5.883 9.484a8.834 8.834 0 0 1-1.912-.163c-.393-.076-.723.304-.6.693 1.154 3.68 4.258 6.392 7.973 7.008a18.318 18.318 0 0 1-10.41 3.227h-1.165a.774.774 0 0 0-.754.593c-.09.35.076.719.382.9a27.215 27.215 0 0 0 13.891 3.824c4.27 0 8.264-.865 11.872-2.571 3.307-1.564 6.23-3.8 8.686-6.644 2.288-2.65 4.077-5.71 5.318-9.093 1.183-3.225 1.808-6.666 1.808-9.952v-.156c0-.528.234-1.024.641-1.362a20.178 20.178 0 0 0 4.005-4.487c.293-.448-.169-1.009-.651-.79-1.038.47-2.116.84-3.221 1.109z"/>
        </g>
    </g>
</svg>