<svg xmlns="http://www.w3.org/2000/svg" width="111" height="82" viewBox="0 0 111 82">
    <g fill="none" fill-rule="evenodd">
        <path fill="#E2642C" d="M12.302 4.612c9.187-8.168 32.049 3.786 37.72 4.083 5.674.27 17.325-11.303 25.506-7.184 14.333 7.205 4.808 27.238 8.661 35.082 5.384 10.954 29.948 10.5 25.884 26.195-8.37 32.62-42.92 12.711-59.181 6.95-17.754-6.32-31.539 23.02-47.18 3.795-12.578-15.467 16.18-27.457 19.56-34.54 3.15-6.529-22.918-23.725-10.97-34.38z" opacity=".032"/>
        <g fill-rule="nonzero" transform="translate(23.53 13.314)">
            <path fill="#F6B44B" d="M27.333 51.807c-.304.583-.66 1.154-1.04 1.687a16.262 16.262 0 0 1-1.764 2.08c-2.982 2.98-7.12 4.794-11.739 4.718a16.79 16.79 0 0 1 .216-2.79 16.115 16.115 0 0 1-8.325 2.13 16.34 16.34 0 0 1 2.132-8.32c-.901.14-1.84.229-2.792.203-.076-5.593 2.614-10.514 6.802-13.495.533-.38 1.104-.735 1.688-1.04-.013.064-.025.14-.038.203 1.447.19 2.868.571 4.239 1.142a16.31 16.31 0 0 1 2.601 1.344 16.766 16.766 0 0 1 5.305 5.314c.533.837.99 1.7 1.357 2.6.572 1.37.952 2.79 1.143 4.237.088.012.152 0 .215-.013z"/>
            <path fill="#E2642C" d="M26.53 47.276a13.53 13.53 0 0 1-3.52 6.115 13.572 13.572 0 0 1-6.79 3.687l.792-5.141-5.193 2.96a13.378 13.378 0 0 1-3.896 1.493 14.06 14.06 0 0 1 1.494-3.895l2.96-5.193-5.142.792a13.572 13.572 0 0 1 3.688-6.791 13.53 13.53 0 0 1 6.115-3.519c.922.377 1.805.831 2.662 1.377a17.156 17.156 0 0 1 5.427 5.44c.558.87 1.026 1.753 1.402 2.675z"/>
            <path fill="#471E48" d="M25.233 64.314c.326-.277.666-.578.98-.905a17.77 17.77 0 0 0 5.18-11.324 17.814 17.814 0 0 0-5.18-13.977c-3.834-3.833-8.964-5.555-13.98-5.178A17.809 17.809 0 0 0 .905 38.108c-.314.315-.616.654-.905.98a22.517 22.517 0 0 1 6.437-13.171 22.52 22.52 0 0 1 12.208-6.31c6.965-1.168 14.37.93 19.75 6.31 5.37 5.367 7.481 12.782 6.312 19.745a22.423 22.423 0 0 1-6.311 12.204c-3.684 3.708-8.348 5.844-13.163 6.448z"/>
            <path fill="#351A35" d="M44.705 45.797a47.706 47.706 0 0 1-13.384 6.458c.379-5.03-1.353-10.2-5.208-14.054-3.855-3.855-9.011-5.587-14.054-5.207a47.372 47.372 0 0 1 6.458-13.385c7.002-1.175 14.447.936 19.856 6.345 5.384 5.384 7.508 12.84 6.332 19.843z"/>
            <path fill="#F6D276" d="M27.439 51.451a16.88 16.88 0 0 0-2.486-6.802 16.675 16.675 0 0 0-2.348-2.94 16.675 16.675 0 0 0-2.94-2.348 16.88 16.88 0 0 0-6.802-2.486C16.623 18.791 30.922 4.555 49.056.91A46.769 46.769 0 0 1 58.244 0h6.07v6.07c0 3.142-.316 6.222-.909 9.187C59.758 33.392 45.523 47.69 27.44 51.451z"/>
            <path fill="#F6E7AA" d="M27.354 51.451a16.856 16.856 0 0 0-2.492-6.802 16.681 16.681 0 0 0-2.352-2.94L64.314 0v6.07c0 3.142-.316 6.222-.911 9.187C59.748 33.392 45.48 47.69 27.354 51.451z" opacity=".508"/>
            <path fill="#FFF" d="M50.116 14.2c-3.926-3.927-10.29-3.927-14.217 0a9.97 9.97 0 0 0-2.938 7.113 10.071 10.071 0 0 0 2.938 7.09 10.058 10.058 0 0 0 7.077 2.95 9.941 9.941 0 0 0 7.127-2.95c3.939-3.914 3.939-10.278.013-14.204z" opacity=".245"/>
            <circle cx="43.01" cy="21.304" r="6.833" fill="#E2642C"/>
            <path fill="#471E48" d="M31.353 32.96c-6.576 2.312-13.78 9.515-16.078 16.08 6.564-2.312 13.767-9.503 16.078-16.08zM63.404 15.275L49.04.91C52.01.316 55.08 0 58.237 0h6.077v6.077c0 3.146-.316 6.229-.91 9.198z"/>
        </g>
    </g>
</svg>
