<svg xmlns="http://www.w3.org/2000/svg" width="298" height="76" viewBox="0 0 298 76">
    <g fill="none" fill-rule="evenodd">
        <path fill="#3F63D8" d="M149.577 12.452c-2.65-2.486-5.84-4.685-9.511-6.443a48.395 48.395 0 0 0-4.398-1.82c-4.348-1.692-9.125-2.914-14.191-3.532-24.986-3.044-54.821 4.402-56.414 24.24-.478 5.963 1.798 11.386 5.894 15.922.03.055.043.12.074.173 4.156 7.48 17.12 12.591 27.18 15.077a77.163 77.163 0 0 0 18.033 2.228c.862.02 1.708.015 2.551.003 6.439 5.846 15.988 10.25 26.275 12.687.198.049 1.06-.038.743-.307-4.912-4.157-9.515-9.16-12.463-14.44 9.842-2.584 18.097-7.604 22.627-15.146 6.043-10.061 2.574-20.725-6.4-28.642"/>
        <path fill="#22AAE1" d="M75.656 69.36c-7.393-3.244-11.828-10.244-13.428-17.974-.749-3.621-.85-7.236-.842-10.918.006-2.456.03-5.135-1.05-7.406-1.137-2.393-3.125-3.423-5.617-3.99-3.822-.866-7.831-1.292-11.716-1.816-7.307-.983-14.717-1.612-22.087-1.036-3.355.262-6.702.76-9.96 1.6-2.706.694-6.164 1.432-8.386 3.241C.708 32.575.195 34.771.073 37.072c-.21 4.033.075 8.149.299 12.176.22 3.98.531 7.965 1 11.925.32 2.693.712 5.468 2.441 7.66 3.918 4.973 10.87 4.494 16.435 3.587 9.32-1.52 18.612-2.419 28.034-3.006 4.468-.278 8.976-.656 13.447-.242 4.07.38 7.956 2.14 12.07 1.549.36-.052.489-.318.463-.593.248.118.475.254.73.368.768.336 1.439-.796.664-1.135"/>
        <path fill="#FFF" fill-rule="nonzero" d="M119.362 14H99.638A3.638 3.638 0 0 0 96 17.638v19.724A3.638 3.638 0 0 0 99.638 41h9.728l.016-9.648h-2.506a.591.591 0 0 1-.592-.59l-.012-3.11a.591.591 0 0 1 .592-.593h2.502v-3.005c0-3.488 2.13-5.387 5.24-5.387h2.554c.326 0 .591.265.591.592v2.622a.592.592 0 0 1-.591.592h-1.567c-1.692 0-2.02.804-2.02 1.984v2.602h3.718c.355 0 .63.309.588.66l-.369 3.11a.591.591 0 0 1-.587.523h-3.333L113.574 41h5.788A3.638 3.638 0 0 0 123 37.362V17.638A3.638 3.638 0 0 0 119.362 14zM42.602 41.443a9.833 9.833 0 0 1-1.723.587 5.435 5.435 0 0 0 1.418-2.282c.08-.249-.189-.465-.412-.331a9.893 9.893 0 0 1-2.635 1.1.695.695 0 0 1-.626-.157A5.36 5.36 0 0 0 35.057 39c-.568 0-1.143.09-1.707.266a5.252 5.252 0 0 0-3.52 3.8 5.862 5.862 0 0 0-.127 2.004.199.199 0 0 1-.216.22c-3.826-.36-7.276-2.22-9.714-5.241a.28.28 0 0 0-.462.036 5.48 5.48 0 0 0-.73 2.737c0 1.475.587 2.866 1.607 3.88a4.802 4.802 0 0 1-1.23-.481.282.282 0 0 0-.418.245 5.454 5.454 0 0 0 3.148 5.02 4.779 4.779 0 0 1-1.023-.085.284.284 0 0 0-.321.366 5.418 5.418 0 0 0 4.266 3.71 9.877 9.877 0 0 1-5.57 1.709h-.623a.413.413 0 0 0-.404.314c-.048.185.04.38.204.476A14.683 14.683 0 0 0 25.651 60c2.285 0 4.422-.458 6.352-1.36a14.04 14.04 0 0 0 4.648-3.518 15.452 15.452 0 0 0 2.846-4.813c.633-1.708.968-3.53.968-5.269v-.083a.93.93 0 0 1 .343-.72 10.72 10.72 0 0 0 2.143-2.376c.157-.237-.09-.534-.349-.418z"/>
        <path fill="#FFC82C" d="M227.146 12.604l-50.352-3.58c-5.83-.414-10.854 4.457-11.195 10.86l-.58 10.814c-.315 5.86 3.421 11.047 8.69 12.065l2.364.456s-2.891 8.294-4.193 10.88c-1.253 2.485-4.397 7.901-4.397 7.901s10.817-3.587 16.92-15.697l36.994 9.726c6.05 1.59 12.033-2.89 12.89-9.653l2.61-20.645c.845-6.653-3.641-12.692-9.751-13.127"/>
        <g fill="#FFF" fill-rule="nonzero" transform="translate(191 20)">
            <path d="M14.416 0h-8.3A6.125 6.125 0 0 0 0 6.12v8.303a6.125 6.125 0 0 0 6.117 6.12h8.299a6.125 6.125 0 0 0 6.116-6.12V6.12A6.125 6.125 0 0 0 14.416 0zm4.05 14.423a4.052 4.052 0 0 1-4.05 4.054h-8.3a4.052 4.052 0 0 1-4.05-4.054V6.12a4.052 4.052 0 0 1 4.05-4.053h8.3a4.052 4.052 0 0 1 4.05 4.053v8.303z"/>
            <path d="M10.266 4.834a5.443 5.443 0 0 0-5.435 5.438 5.443 5.443 0 0 0 5.435 5.438 5.443 5.443 0 0 0 5.435-5.438 5.443 5.443 0 0 0-5.435-5.438zm0 8.76a3.322 3.322 0 0 1-3.32-3.322 3.322 3.322 0 1 1 3.32 3.322z"/>
            <ellipse cx="15.701" cy="5.438" rx="1.208" ry="1.208"/>
        </g>
        <path fill="#EA5724" d="M297.563 37.452c-2.72-10.152-13.845-17.05-27.453-16.41-11.532.541-23.124 6.4-29.012 14.797-6.915 9.861-4.94 21.753 4.872 28.274a25.852 25.852 0 0 0 4.325 2.3c-1.495 3.132-4.172 5.918-7.1 8.588-.65.592.094 1.224.918.92 4.992-1.842 9.64-4.307 13.556-7.471 6.902 1.048 14.53.07 21.413-2.876 13.218-5.656 20.88-17.193 18.48-28.122"/>
        <path fill="#FFF" fill-rule="nonzero" d="M279.938 37.638c-.679-1.193-1.415-1.412-2.913-1.496-1.497-.1-5.26-.142-8.522-.142-3.267 0-7.033.042-8.528.14-1.495.086-2.233.304-2.917 1.498-.699 1.192-1.058 3.244-1.058 6.857V44.508c0 3.598.36 5.665 1.058 6.845.684 1.193 1.42 1.409 2.915 1.51 1.497.086 5.263.137 8.53.137 3.261 0 7.025-.051 8.524-.136 1.498-.1 2.234-.317 2.912-1.51.705-1.18 1.061-3.247 1.061-6.845v-.007-.005c0-3.615-.356-5.667-1.063-6.859zm-14.563 11.498v-9.272l7.813 4.636-7.813 4.636z"/>
    </g>
</svg>
